<svg width="32" height="32" viewBox="0 0 32 32" fill="none" xmlns="http://www.w3.org/2000/svg">
<circle cx="16" cy="16" r="16" fill="#1F7BFD"/>
<ellipse cx="8.62582" cy="20.5761" rx="4.57699" ry="2.54227" fill="white"/>
<ellipse cx="23.3739" cy="20.5761" rx="4.57698" ry="2.54227" fill="white"/>
<path fill-rule="evenodd" clip-rule="evenodd" d="M8.88004 20.5761C7.897 20.5761 7.08885 19.7764 7.20209 18.7999C7.85328 13.1842 11.5442 8.88165 15.9998 8.88165C20.4554 8.88165 24.1463 13.1842 24.7975 18.7999C24.9107 19.7764 24.1026 20.5761 23.1195 20.5761V20.5761C22.1365 20.5761 21.3562 19.7731 21.1946 18.8035C20.6351 15.4462 18.5216 12.9493 15.9998 12.9493C13.478 12.9493 11.3644 15.4462 10.805 18.8035C10.6434 19.7731 9.86307 20.5761 8.88004 20.5761V20.5761Z" fill="white"/>
</svg>