<svg width="24" height="24" viewBox="0 0 24 24" fill="none" xmlns="http://www.w3.org/2000/svg">
<path d="M0 12C0 16.2872 2.28719 20.2487 6 22.3923C9.71281 24.5359 14.2872 24.5359 18 22.3923C21.7128 20.2487 24 16.2872 24 12C24 5.37258 18.6274 0 12 0C5.37258 0 0 5.37258 0 12Z" fill="#FAFAFA"/>
<path d="M7.83938 8.08274L6.21675 6.46012V12C6.21675 14.2406 7.56652 16.2607 9.63662 17.1181C11.7067 17.9756 14.0895 17.5016 15.6739 15.9172L7.83938 8.08274ZM16.1606 15.9172L17.7833 17.5399V12C17.7833 9.75934 16.4335 7.73933 14.3634 6.88188C12.2933 6.02442 9.91052 6.49838 8.32613 8.08274L16.1606 15.9172Z" fill="#48A3FF"/>
</svg>
