<svg width="24" height="24" viewBox="0 0 24 24" fill="none" xmlns="http://www.w3.org/2000/svg">
<path d="M11.989 8.00237C11.7558 8.00191 11.5297 8.08324 11.3501 8.23225L5.36062 13.2297C5.15676 13.3993 5.02856 13.6431 5.00422 13.9074C4.97989 14.1717 5.06141 14.4348 5.23085 14.6389C5.40029 14.843 5.64378 14.9714 5.90774 14.9958C6.1717 15.0201 6.43452 14.9385 6.63838 14.7689L11.989 10.2912L17.3397 14.6089C17.4418 14.692 17.5593 14.754 17.6854 14.7914C17.8115 14.8288 17.9438 14.8409 18.0746 14.827C18.2054 14.813 18.3321 14.7733 18.4475 14.7102C18.563 14.6471 18.6648 14.5617 18.7472 14.459C18.8386 14.3563 18.9079 14.2357 18.9506 14.1049C18.9933 13.9741 19.0086 13.8359 18.9954 13.6989C18.9823 13.5619 18.9411 13.4291 18.8743 13.3088C18.8076 13.1885 18.7167 13.0833 18.6074 12.9998L12.6179 8.17228C12.4332 8.04683 12.2117 7.987 11.989 8.00237Z" fill="#8F9BB3"/>
</svg>
