<svg width="37" height="36" viewBox="0 0 37 36" fill="none" xmlns="http://www.w3.org/2000/svg">
<g clip-path="url(#clip0_6003:13193)">
<path d="M18.5093 36C20.9673 36 23.2833 35.5275 25.4573 34.5826C27.6312 33.6377 29.5458 32.3376 31.201 30.6824C32.8562 29.0273 34.1531 27.1158 35.0919 24.948C36.0306 22.7802 36.5 20.4611 36.5 17.9907C36.5 15.5327 36.0275 13.2167 35.0826 11.0427C34.1377 8.86876 32.8376 6.95111 31.1824 5.28976C29.5273 3.62841 27.6127 2.33145 25.4388 1.39887C23.2648 0.466289 20.9488 0 18.4907 0C16.0327 0 13.7198 0.466289 11.552 1.39887C9.3842 2.33145 7.46963 3.62841 5.80829 5.28976C4.14694 6.95111 2.84689 8.86876 1.90813 11.0427C0.969377 13.2167 0.5 15.5327 0.5 17.9907C0.5 20.4611 0.972465 22.7802 1.9174 24.948C2.86233 27.1158 4.16238 29.0273 5.81755 30.6824C7.47272 32.3376 9.3842 33.6377 11.552 34.5826C13.7198 35.5275 16.0389 36 18.5093 36ZM18.5093 32.702C16.4712 32.702 14.5628 32.3222 12.7841 31.5625C11.0054 30.8029 9.44287 29.7499 8.0965 28.4035C6.75013 27.0571 5.70021 25.4946 4.94673 23.7159C4.19326 21.9372 3.81652 20.0288 3.81652 17.9907C3.81652 15.9527 4.19326 14.0443 4.94673 12.2656C5.70021 10.4869 6.75013 8.92434 8.0965 7.57797C9.44287 6.2316 11.0023 5.18168 12.7748 4.4282C14.5473 3.67473 16.4527 3.29799 18.4907 3.29799C20.5288 3.29799 22.4372 3.67473 24.2159 4.4282C25.9946 5.18168 27.5571 6.2316 28.9035 7.57797C30.2499 8.92434 31.3029 10.4869 32.0625 12.2656C32.8222 14.0443 33.202 15.9527 33.202 17.9907C33.2144 20.0288 32.8407 21.9372 32.0811 23.7159C31.3214 25.4946 30.2715 27.0571 28.9313 28.4035C27.5911 29.7499 26.0286 30.8029 24.2437 31.5625C22.4588 32.3222 20.5473 32.702 18.5093 32.702Z" fill="#3366FF"/>
<path d="M19.6026 25.2351C19.3061 25.5316 18.9294 25.6798 18.4724 25.6798C18.0153 25.6798 17.6448 25.5316 17.3607 25.2351C17.0766 24.9387 16.9345 24.5619 16.9345 24.1049V19.547H12.3766C11.9196 19.547 11.5429 19.4019 11.2464 19.1116C10.95 18.8213 10.8018 18.4539 10.8018 18.0092C10.8018 17.5398 10.95 17.1569 11.2464 16.8604C11.5429 16.564 11.9196 16.4158 12.3766 16.4158H16.9345V11.8764C16.9345 11.4194 17.0766 11.0426 17.3607 10.7462C17.6448 10.4497 18.0153 10.3015 18.4724 10.3015C18.9294 10.3015 19.3061 10.4467 19.6026 10.7369C19.899 11.0272 20.0473 11.407 20.0473 11.8764V16.4158H24.6237C25.0684 16.4158 25.4389 16.564 25.7354 16.8604C26.0318 17.1569 26.18 17.5398 26.18 18.0092C26.18 18.4539 26.0318 18.8213 25.7354 19.1116C25.4389 19.4019 25.0684 19.547 24.6237 19.547H20.0473V24.1049C20.0473 24.5619 19.899 24.9387 19.6026 25.2351Z" fill="#3366FF"/>
</g>
<defs>
<clipPath id="clip0_6003:13193">
<rect width="36" height="36" fill="white" transform="translate(0.5)"/>
</clipPath>
</defs>
</svg>
