<svg width="25" height="24" viewBox="0 0 25 24" fill="none" xmlns="http://www.w3.org/2000/svg">
<rect opacity="0.16" x="0.981445" width="24" height="24" rx="12" fill="white"/>
<path fill-rule="evenodd" clip-rule="evenodd" d="M17.248 6.63352C17.248 6.91427 17.3089 7.18081 17.4182 7.42063L14.1148 10.7241L9.1148 5.72407L5.62435 9.21452C5.47536 9.16206 5.3151 9.13353 5.14818 9.13353C4.35657 9.13353 3.71484 9.77525 3.71484 10.5669C3.71484 11.3585 4.35657 12.0002 5.14818 12.0002C5.93979 12.0002 6.58151 11.3585 6.58151 10.5669C6.58151 10.4373 6.56432 10.3118 6.5321 10.1924L9.1148 7.60969L14.1148 12.6097L18.3611 8.3634C18.6009 8.47265 18.8674 8.53352 19.148 8.53352C20.1974 8.53352 21.048 7.68286 21.048 6.63352C21.048 5.58418 20.1974 4.73352 19.148 4.73352C18.0987 4.73352 17.248 5.58418 17.248 6.63352ZM7.24805 11.8L7.24805 19H9.91471V11.8H7.24805ZM12.0481 18.9999V14.6666H14.7148V18.9999L12.0481 18.9999ZM16.3813 12.6666V18.9999H19.048V12.6666H16.3813Z" fill="white"/>
</svg>
