<svg width="25" height="24" viewBox="0 0 25 24" fill="none" xmlns="http://www.w3.org/2000/svg">
<rect opacity="0.16" x="0.981445" width="24" height="24" rx="12" fill="#2E3A59"/>
<path fill-rule="evenodd" clip-rule="evenodd" d="M17.248 6.63364C17.248 6.9144 17.3089 7.18093 17.4182 7.42075L14.1148 10.7242L9.1148 5.7242L5.62435 9.21464C5.47536 9.16219 5.3151 9.13365 5.14818 9.13365C4.35657 9.13365 3.71484 9.77538 3.71484 10.567C3.71484 11.3586 4.35657 12.0003 5.14818 12.0003C5.93979 12.0003 6.58151 11.3586 6.58151 10.567C6.58151 10.4374 6.56432 10.3119 6.5321 10.1925L9.1148 7.60981L14.1148 12.6098L18.3611 8.36352C18.6009 8.47277 18.8674 8.53364 19.148 8.53364C20.1974 8.53364 21.048 7.68298 21.048 6.63364C21.048 5.5843 20.1974 4.73364 19.148 4.73364C18.0987 4.73364 17.248 5.5843 17.248 6.63364ZM7.24805 11.8001L7.24805 19.0001H9.91471V11.8001H7.24805ZM12.0481 19V14.6667H14.7148V19L12.0481 19ZM16.3813 12.6667V19H19.048V12.6667H16.3813Z" fill="#2E3A59"/>
</svg>
