<svg width="16" height="16" viewBox="0 0 16 16" fill="none" xmlns="http://www.w3.org/2000/svg">
<path d="M7.99266 5.33491C7.83716 5.33461 7.68647 5.38883 7.56674 5.48816L3.57373 8.81977C3.43782 8.93288 3.35235 9.0954 3.33613 9.27159C3.3199 9.44779 3.37425 9.62322 3.48721 9.75929C3.60017 9.89536 3.7625 9.98094 3.93847 9.99718C4.11445 10.0134 4.28966 9.95901 4.42557 9.84591L7.99266 6.86079L11.5598 9.7393C11.6278 9.79465 11.7062 9.83598 11.7902 9.86092C11.8743 9.88586 11.9625 9.89392 12.0497 9.88464C12.1369 9.87535 12.2214 9.8489 12.2983 9.8068C12.3753 9.76471 12.4432 9.7078 12.4981 9.63935C12.5591 9.57084 12.6052 9.49046 12.6337 9.40326C12.6622 9.31606 12.6724 9.2239 12.6636 9.13257C12.6549 9.04125 12.6274 8.95271 12.5829 8.87251C12.5384 8.79232 12.4778 8.72219 12.4049 8.66652L8.41193 5.44818C8.28875 5.36455 8.14113 5.32467 7.99266 5.33491Z" fill="white"/>
</svg>
