<svg width="40" height="40" viewBox="0 0 40 40" fill="none" xmlns="http://www.w3.org/2000/svg">
<path d="M29.419 35C31.222 35 32.6029 34.5232 33.5618 33.5696C34.5206 32.6159 35 31.2428 35 29.4502V10.5498C35 8.75717 34.5206 7.38405 33.5618 6.43043C32.6029 5.47681 31.222 5 29.419 5H10.581C8.78843 5 7.41011 5.47681 6.44607 6.43043C5.48202 7.38405 5 8.75717 5 10.5498V29.4502C5 31.2428 5.48202 32.6159 6.44607 33.5696C7.41011 34.5232 8.78843 35 10.581 35H29.419ZM15.3648 27.9026C15.0104 27.9026 14.7134 27.7853 14.4737 27.5508C14.234 27.3163 14.1141 27.0271 14.1141 26.6832V17.1157L14.1298 16.2246L13.8327 16.5529L12.2381 18.21C12.0193 18.4497 11.7379 18.5696 11.394 18.5696C11.0292 18.5696 10.7322 18.4549 10.5029 18.2256C10.2736 17.9964 10.1589 17.7045 10.1589 17.3502C10.1589 17.1939 10.1928 17.0375 10.2606 16.8812C10.3283 16.7249 10.4195 16.5894 10.5341 16.4747L14.4424 12.457C14.703 12.1756 15.0104 12.0401 15.3648 12.0505C15.7191 12.061 16.0214 12.1965 16.2715 12.457L20.1641 16.4747C20.2892 16.5789 20.3882 16.7118 20.4612 16.8734C20.5341 17.0349 20.5706 17.1939 20.5706 17.3502C20.5706 17.7045 20.4534 17.9964 20.2189 18.2256C19.9844 18.4549 19.6952 18.5696 19.3512 18.5696C18.9865 18.5696 18.6946 18.4549 18.4758 18.2256L16.8812 16.5529L16.5842 16.2246L16.5998 17.1157V26.6832C16.5998 27.0271 16.4851 27.3163 16.2559 27.5508C16.0266 27.7853 15.7295 27.9026 15.3648 27.9026ZM24.8775 27.8869C24.518 27.8869 24.2131 27.7566 23.963 27.4961L20.0547 23.4784C19.8046 23.2178 19.6795 22.926 19.6795 22.6029C19.6795 22.2486 19.7916 21.9567 20.0156 21.7275C20.2397 21.4982 20.5341 21.3835 20.8989 21.3835C21.2637 21.3835 21.5503 21.5034 21.7587 21.7431L23.3533 23.3846L23.6503 23.7129L23.6347 22.853V13.2699C23.6347 12.926 23.752 12.6368 23.9865 12.4023C24.2209 12.1678 24.5206 12.0505 24.8854 12.0505C25.2293 12.0505 25.5211 12.1678 25.7608 12.4023C26.0005 12.6368 26.1204 12.926 26.1204 13.2699V22.8374L26.1047 23.7129L26.4174 23.3846L27.9964 21.7431C28.2256 21.5034 28.507 21.3835 28.8405 21.3835C29.2053 21.3835 29.5023 21.4982 29.7316 21.7275C29.9609 21.9567 30.0756 22.2486 30.0756 22.6029C30.0756 22.926 29.9557 23.2178 29.716 23.4784L25.8077 27.4961C25.5472 27.7566 25.2371 27.8869 24.8775 27.8869Z" fill="#8F9BB3"/>
</svg>
