<svg width="32" height="32" viewBox="0 0 32 32" fill="none" xmlns="http://www.w3.org/2000/svg">
<path d="M11.5673 9.57736C11.7235 9.42114 11.9355 9.33337 12.1564 9.33337C12.3774 9.33337 12.5893 9.42114 12.7456 9.57736L16.0789 12.9107C16.2307 13.0679 16.3147 13.2784 16.3128 13.4969C16.3109 13.7154 16.2233 13.9244 16.0688 14.0789C15.9143 14.2334 15.7053 14.321 15.4868 14.3229C15.2683 14.3248 15.0578 14.2408 14.9006 14.089L12.9898 12.1782V21.8332C12.9898 21.9426 12.9682 22.051 12.9264 22.1521C12.8845 22.2533 12.8231 22.3451 12.7457 22.4225C12.6683 22.4999 12.5765 22.5613 12.4754 22.6032C12.3742 22.6451 12.2659 22.6667 12.1564 22.6667C12.047 22.6667 11.9386 22.6451 11.8375 22.6032C11.7364 22.5613 11.6445 22.4999 11.5671 22.4225C11.4897 22.3451 11.4284 22.2533 11.3865 22.1521C11.3446 22.051 11.3231 21.9426 11.3231 21.8332V12.1782L9.41226 14.089C9.25509 14.2408 9.04459 14.3248 8.82609 14.3229C8.60759 14.321 8.39858 14.2334 8.24408 14.0789C8.08957 13.9244 8.00193 13.7154 8.00003 13.4969C7.99813 13.2784 8.08213 13.0679 8.23393 12.9107L11.5673 9.57736Z" fill="#3366FF"/>
<path d="M21.0686 22.4228C20.9123 22.579 20.7004 22.6667 20.4794 22.6667C20.2585 22.6667 20.0465 22.579 19.8903 22.4228L16.5569 19.0894C16.4051 18.9323 16.3211 18.7218 16.323 18.5033C16.3249 18.2848 16.4126 18.0758 16.5671 17.9212C16.7216 17.7667 16.9306 17.6791 17.1491 17.6772C17.3676 17.6753 17.5781 17.7593 17.7353 17.9111L19.6461 19.8219L19.6461 10.1669C19.6461 10.0575 19.6676 9.9491 19.7095 9.84798C19.7514 9.74686 19.8127 9.65498 19.8901 9.57759C19.9675 9.50019 20.0594 9.4388 20.1605 9.39691C20.2616 9.35502 20.37 9.33347 20.4794 9.33347C20.5889 9.33347 20.6972 9.35502 20.7984 9.39691C20.8995 9.4388 20.9913 9.50019 21.0687 9.57759C21.1461 9.65498 21.2075 9.74686 21.2494 9.84798C21.2912 9.9491 21.3128 10.0575 21.3128 10.1669L21.3128 19.8219L23.2236 17.9111C23.3808 17.7593 23.5913 17.6753 23.8098 17.6772C24.0283 17.6791 24.2373 17.7667 24.3918 17.9212C24.5463 18.0758 24.6339 18.2848 24.6358 18.5033C24.6377 18.7218 24.5537 18.9323 24.4019 19.0894L21.0686 22.4228Z" fill="white"/>
</svg>
