<svg width="16" height="17" viewBox="0 0 16 17" fill="none" xmlns="http://www.w3.org/2000/svg">
<path d="M7.99266 5.73872C7.83716 5.73841 7.68647 5.79264 7.56674 5.89197L3.57373 9.22358C3.43782 9.33668 3.35235 9.49921 3.33613 9.6754C3.3199 9.85159 3.37425 10.027 3.48721 10.1631C3.60017 10.2992 3.7625 10.3847 3.93847 10.401C4.11445 10.4172 4.28966 10.3628 4.42557 10.2497L7.99266 7.2646L11.5598 10.1431C11.6278 10.1985 11.7062 10.2398 11.7902 10.2647C11.8743 10.2897 11.9625 10.2977 12.0497 10.2884C12.1369 10.2792 12.2214 10.2527 12.2983 10.2106C12.3753 10.1685 12.4432 10.1116 12.4981 10.0432C12.5591 9.97465 12.6052 9.89427 12.6337 9.80707C12.6622 9.71986 12.6724 9.62771 12.6636 9.53638C12.6549 9.44505 12.6274 9.35652 12.5829 9.27632C12.5384 9.19613 12.4778 9.126 12.4049 9.07033L8.41193 5.85199C8.28875 5.76836 8.14113 5.72848 7.99266 5.73872Z" fill="#598BFF"/>
</svg>
