<svg width="24" height="24" viewBox="0 0 24 24" fill="none" xmlns="http://www.w3.org/2000/svg">
<path d="M12.0003 16C11.7666 16.0005 11.5402 15.9191 11.3603 15.77L5.36028 10.77C5.15606 10.6003 5.02763 10.3564 5.00325 10.092C4.97888 9.82753 5.06054 9.56425 5.23028 9.36003C5.40001 9.15581 5.64393 9.02739 5.90835 9.00301C6.17278 8.97863 6.43606 9.06029 6.64028 9.23003L12.0003 13.71L17.3603 9.39003C17.4626 9.30697 17.5803 9.24493 17.7066 9.2075C17.8329 9.17007 17.9654 9.15798 18.0965 9.17192C18.2275 9.18586 18.3545 9.22555 18.4701 9.28873C18.5857 9.3519 18.6878 9.4373 18.7703 9.54003C18.8619 9.64285 18.9312 9.76348 18.974 9.89435C19.0168 10.0252 19.0321 10.1635 19.019 10.3006C19.0058 10.4377 18.9645 10.5705 18.8976 10.6909C18.8307 10.8112 18.7397 10.9165 18.6303 11L12.6303 15.83C12.4452 15.9555 12.2234 16.0154 12.0003 16Z" fill="white"/>
</svg>
