<svg width="16" height="17" viewBox="0 0 16 17" fill="none" xmlns="http://www.w3.org/2000/svg">
<path d="M8.00002 11.4099C7.84425 11.4102 7.6933 11.356 7.57335 11.2566L3.57335 7.92327C3.43721 7.81011 3.35159 7.6475 3.33534 7.47122C3.31909 7.29493 3.37353 7.11941 3.48669 6.98327C3.59985 6.84712 3.76245 6.76151 3.93874 6.74525C4.11502 6.729 4.29054 6.78344 4.42669 6.8966L8.00002 9.88327L11.5734 7.00327C11.6415 6.94789 11.72 6.90653 11.8042 6.88158C11.8885 6.85663 11.9768 6.84856 12.0641 6.85786C12.1515 6.86715 12.2362 6.89361 12.3132 6.93573C12.3903 6.97785 12.4583 7.03478 12.5134 7.10327C12.5744 7.17181 12.6206 7.25223 12.6492 7.33948C12.6777 7.42673 12.6879 7.51893 12.6791 7.61031C12.6704 7.70168 12.6428 7.79026 12.5983 7.8705C12.5537 7.95074 12.493 8.0209 12.42 8.0766L8.42002 11.2966C8.29663 11.3803 8.14876 11.4202 8.00002 11.4099Z" fill="#598BFF"/>
</svg>
