<svg width="32" height="33" viewBox="0 0 32 33" fill="none" xmlns="http://www.w3.org/2000/svg">
<path d="M11.5673 9.98117C11.7235 9.82495 11.9355 9.73718 12.1564 9.73718C12.3774 9.73718 12.5893 9.82495 12.7456 9.98117L16.0789 13.3145C16.2307 13.4717 16.3147 13.6822 16.3128 13.9007C16.3109 14.1192 16.2233 14.3282 16.0688 14.4827C15.9143 14.6372 15.7053 14.7248 15.4868 14.7267C15.2683 14.7286 15.0578 14.6446 14.9006 14.4928L12.9898 12.582V22.237C12.9898 22.3464 12.9682 22.4548 12.9264 22.5559C12.8845 22.6571 12.8231 22.7489 12.7457 22.8263C12.6683 22.9037 12.5765 22.9651 12.4754 23.007C12.3742 23.0489 12.2659 23.0705 12.1564 23.0705C12.047 23.0705 11.9386 23.0489 11.8375 23.007C11.7364 22.9651 11.6445 22.9037 11.5671 22.8263C11.4897 22.7489 11.4284 22.6571 11.3865 22.5559C11.3446 22.4548 11.3231 22.3464 11.3231 22.237V12.582L9.41226 14.4928C9.25509 14.6446 9.04459 14.7286 8.82609 14.7267C8.60759 14.7248 8.39858 14.6372 8.24408 14.4827C8.08957 14.3282 8.00193 14.1192 8.00003 13.9007C7.99813 13.6822 8.08213 13.4717 8.23393 13.3145L11.5673 9.98117Z" fill="#8F9BB3" fill-opacity="0.24"/>
<path d="M21.0686 22.8266C20.9123 22.9828 20.7004 23.0706 20.4794 23.0706C20.2585 23.0706 20.0465 22.9828 19.8903 22.8266L16.5569 19.4932C16.4051 19.3361 16.3211 19.1256 16.323 18.9071C16.3249 18.6886 16.4126 18.4796 16.5671 18.3251C16.7216 18.1705 16.9306 18.0829 17.1491 18.081C17.3676 18.0791 17.5781 18.1631 17.7353 18.3149L19.6461 20.2257L19.6461 10.5707C19.6461 10.4613 19.6676 10.3529 19.7095 10.2518C19.7514 10.1507 19.8128 10.0588 19.8901 9.9814C19.9675 9.904 20.0594 9.84261 20.1605 9.80072C20.2616 9.75883 20.37 9.73727 20.4794 9.73727C20.5889 9.73727 20.6973 9.75883 20.7984 9.80072C20.8995 9.84261 20.9914 9.904 21.0687 9.9814C21.1461 10.0588 21.2075 10.1507 21.2494 10.2518C21.2912 10.3529 21.3128 10.4613 21.3128 10.5707L21.3128 20.2257L23.2236 18.3149C23.3808 18.1631 23.5913 18.0791 23.8098 18.081C24.0283 18.0829 24.2373 18.1705 24.3918 18.3251C24.5463 18.4796 24.6339 18.6886 24.6358 18.9071C24.6377 19.1256 24.5537 19.3361 24.4019 19.4932L21.0686 22.8266Z" fill="#3366FF"/>
</svg>
