<svg width="120" height="120" viewBox="0 0 120 120" fill="none" xmlns="http://www.w3.org/2000/svg">
<path d="M60 84.75C58.7625 84.75 57.75 83.7375 57.75 82.5V37.5C57.75 36.2625 58.7625 35.25 60 35.25C61.2375 35.25 62.25 36.2625 62.25 37.5V82.5C62.25 83.7375 61.2375 84.75 60 84.75Z" fill="#00B42A"/>
<path d="M78.225 57.9746C77.6625 57.9746 77.1 57.7496 76.65 57.2996L58.425 39.0746C57.525 38.1746 57.525 36.7684 58.425 35.8684C59.325 34.9684 60.7312 34.9684 61.6312 35.8684L79.8562 54.0934C80.7562 54.9934 80.7562 56.3996 79.8562 57.2996C79.4062 57.7496 78.8437 57.9746 78.225 57.9746Z" fill="#00B42A"/>
<path d="M41.7754 57.9746C41.2129 57.9746 40.6504 57.7496 40.2004 57.2996C39.3004 56.3996 39.3004 54.9934 40.2004 54.0934L58.4254 35.8684C59.3254 34.9684 60.7316 34.9684 61.6316 35.8684C62.5316 36.7684 62.5316 38.1746 61.6316 39.0746L43.3504 57.3559C42.9004 57.7496 42.3379 57.9746 41.7754 57.9746Z" fill="#00B42A"/>
<path d="M60 105C35.1938 105 15 84.8063 15 60C15 35.1938 35.1938 15 60 15C84.8063 15 105 35.1938 105 60C105 84.8063 84.8063 105 60 105ZM60 19.5C37.6688 19.5 19.5 37.6687 19.5 60C19.5 82.3313 37.6688 100.5 60 100.5C82.3313 100.5 100.5 82.3313 100.5 60C100.5 37.6687 82.3313 19.5 60 19.5Z" fill="#00B42A"/>
</svg>
