<svg width="90" height="90" viewBox="0 0 90 90" fill="none" xmlns="http://www.w3.org/2000/svg">
<path d="M45 69.75C43.7625 69.75 42.75 68.7375 42.75 67.5V22.5C42.75 21.2625 43.7625 20.25 45 20.25C46.2375 20.25 47.25 21.2625 47.25 22.5V67.5C47.25 68.7375 46.2375 69.75 45 69.75Z" fill="#00E096"/>
<path d="M63.225 42.9746C62.6625 42.9746 62.1 42.7496 61.65 42.2996L43.425 24.0746C42.525 23.1746 42.525 21.7684 43.425 20.8684C44.325 19.9684 45.7312 19.9684 46.6312 20.8684L64.8562 39.0934C65.7562 39.9934 65.7562 41.3996 64.8562 42.2996C64.4062 42.7496 63.8437 42.9746 63.225 42.9746Z" fill="#00E096"/>
<path d="M26.7754 42.9746C26.2129 42.9746 25.6504 42.7496 25.2004 42.2996C24.3004 41.3996 24.3004 39.9934 25.2004 39.0934L43.4254 20.8684C44.3254 19.9684 45.7316 19.9684 46.6316 20.8684C47.5316 21.7684 47.5316 23.1746 46.6316 24.0746L28.3504 42.3559C27.9004 42.7496 27.3379 42.9746 26.7754 42.9746Z" fill="#00E096"/>
<path d="M45 90C20.1938 90 0 69.8063 0 45C0 20.1938 20.1938 0 45 0C69.8063 0 90 20.1938 90 45C90 69.8063 69.8063 90 45 90ZM45 4.5C22.6688 4.5 4.5 22.6687 4.5 45C4.5 67.3313 22.6688 85.5 45 85.5C67.3313 85.5 85.5 67.3313 85.5 45C85.5 22.6687 67.3313 4.5 45 4.5Z" fill="#00E096"/>
</svg>
