<svg width="14" height="16" viewBox="0 0 14 16" fill="none" xmlns="http://www.w3.org/2000/svg">
<path d="M4.82504 14.375C5.23754 15.1625 6.06254 15.6875 7.00004 15.6875C7.93754 15.6875 8.76254 15.1625 9.17504 14.375H4.82504ZM13.5625 12.725C13.525 11.4875 13.0375 10.475 12.1375 9.6875L12.0625 9.6125V6.875C12.0625 4.8125 10.825 3.05 9.06254 2.2625C8.98754 1.175 8.08754 0.3125 7.00004 0.3125C5.91254 0.3125 5.01254 1.175 4.93754 2.2625C3.17504 3.05 1.93754 4.8125 1.93754 6.875V9.6125L1.86254 9.6875C0.925042 10.5125 0.437542 11.6 0.437542 12.875C0.437542 13.175 0.700042 13.4375 1.00004 13.4375H13C13.3 13.4375 13.5625 13.175 13.5625 12.875V12.725Z" fill="#FFAA00"/>
</svg>
