<svg width="150" height="24" viewBox="0 0 150 24" fill="none" xmlns="http://www.w3.org/2000/svg">
<g clip-path="url(#clip0_23415_14069)">
<ellipse cx="7.71428" cy="19.7144" rx="7.71428" ry="4.28572" fill="#3C444C"/>
<ellipse cx="32.5712" cy="19.7144" rx="7.71428" ry="4.28572" fill="#C4C4C4"/>
<path fill-rule="evenodd" clip-rule="evenodd" d="M8.14306 19.7143C6.48621 19.7143 5.12412 18.3665 5.3149 16.7206C6.41226 7.25343 12.6332 0 20.1431 0C27.653 0 33.8739 7.25343 34.9712 16.7206C35.162 18.3665 33.7999 19.7143 32.143 19.7143C30.4862 19.7143 29.171 18.3609 28.8988 16.7266C27.9559 11.0666 24.3936 6.85714 20.1431 6.85714C15.8925 6.85714 12.3302 11.0666 11.3873 16.7266C11.1151 18.3609 9.79992 19.7143 8.14306 19.7143Z" fill="#CA9979"/>
<mask id="mask0_23415_14069" style="mask-type:alpha" maskUnits="userSpaceOnUse" x="5" y="0" width="30" height="20">
<path fill-rule="evenodd" clip-rule="evenodd" d="M8.14307 19.7143C6.48621 19.7143 5.12412 18.3665 5.3149 16.7206C6.41226 7.25343 12.6332 0 20.1431 0C27.653 0 33.8739 7.25343 34.9712 16.7206C35.162 18.3665 33.7999 19.7143 32.1431 19.7143C30.4862 19.7143 29.1711 18.3609 28.8988 16.7266C27.9559 11.0666 24.3936 6.85714 20.1431 6.85714C15.8925 6.85714 12.3302 11.0666 11.3873 16.7266C11.1151 18.3609 9.79992 19.7143 8.14307 19.7143Z" fill="#CA9979"/>
</mask>
<g mask="url(#mask0_23415_14069)">
<g style="mix-blend-mode:overlay">
<ellipse cx="20.1451" cy="-2.22279" rx="21.8477" ry="21.9032" fill="url(#paint0_radial_23415_14069)" fill-opacity="0.8"/>
</g>
</g>
<path d="M50.074 7.84207C51.9413 7.84207 53.346 8.19736 54.2879 8.90796C55.2299 9.61855 55.8165 10.544 56.0479 11.6842L52.1314 12.9732C51.9661 11.552 51.3299 10.8414 50.2227 10.8414C48.5867 10.8414 47.7687 12.0065 47.7687 14.3365C47.7687 16.6005 48.5867 17.7325 50.2227 17.7325C51.396 17.7325 52.0818 17.0632 52.2801 15.7247L56.0727 16.9393C55.8909 18.063 55.2877 18.9802 54.2631 19.6908C53.2551 20.3848 51.9165 20.7319 50.2475 20.7319C48.0992 20.7319 46.4466 20.17 45.2899 19.0463C44.1331 17.9226 43.5547 16.3361 43.5547 14.287C43.5547 12.2543 44.1248 10.6762 45.2651 9.55245C46.4218 8.41219 48.0248 7.84207 50.074 7.84207Z" fill="#2E3A59"/>
<path d="M58.6082 4.12386H66.5652C70.4982 4.14038 72.4648 5.61114 72.4648 8.53613C72.4648 9.49461 72.1838 10.3044 71.622 10.9654C71.0601 11.6264 70.2338 12.0395 69.1432 12.2048V12.2296C70.366 12.3948 71.2915 12.8245 71.9194 13.5185C72.5639 14.1961 72.8862 15.0471 72.8862 16.0717C72.8862 17.4929 72.3821 18.5836 71.3741 19.3437C70.366 20.1039 68.887 20.484 66.937 20.484H58.6082V4.12386ZM65.7968 10.8166C67.3336 10.8166 68.1021 10.2217 68.1021 9.0319C68.1021 7.84207 67.3336 7.24715 65.7968 7.24715H62.723V10.8166H65.7968ZM66.2182 17.4846C66.9783 17.4846 67.5485 17.3276 67.9285 17.0137C68.3251 16.6997 68.5235 16.2452 68.5235 15.6503C68.5235 15.0719 68.3251 14.634 67.9285 14.3365C67.5485 14.0226 66.9783 13.8656 66.2182 13.8656H62.723V17.4846H66.2182Z" fill="#2E3A59"/>
<path d="M82.2956 14.5101H79.7424V20.484H75.5532V4.12386H83.3614C85.3445 4.12386 86.8648 4.57004 87.9225 5.46241C88.9966 6.35478 89.5337 7.64376 89.5337 9.32935C89.5337 10.5192 89.261 11.5107 88.7157 12.3039C88.1703 13.0971 87.3771 13.6838 86.336 14.0639L90.5004 20.484H85.7907L82.2956 14.5101ZM79.7424 11.4859H82.6426C83.5515 11.4859 84.2125 11.3207 84.6256 10.9902C85.0388 10.6596 85.2453 10.1308 85.2453 9.40372C85.2453 8.69313 85.0388 8.17258 84.6256 7.84207C84.2125 7.51156 83.5515 7.34631 82.6426 7.34631H79.7424V11.4859Z" fill="#2E3A59"/>
<path d="M96.907 20.484H92.6434V4.12386H96.907V20.484Z" fill="#2E3A59"/>
<path d="M107.476 4.12386C110.037 4.12386 111.995 4.83445 113.35 6.25563C114.722 7.66029 115.408 9.67639 115.408 12.3039C115.408 14.9315 114.722 16.9558 113.35 18.377C111.995 19.7817 110.037 20.484 107.476 20.484H100.535V4.12386H107.476ZM107.054 17.2615C108.426 17.2615 109.434 16.8484 110.078 16.0221C110.723 15.1959 111.045 13.9565 111.045 12.3039C111.045 10.6514 110.723 9.41198 110.078 8.58571C109.434 7.75944 108.426 7.34631 107.054 7.34631H104.798V17.2615H107.054Z" fill="#2E3A59"/>
<path d="M133.002 11.6346V20.484H130.027L129.903 18.5505C128.961 20.0048 127.4 20.7319 125.218 20.7319C123.731 20.7319 122.409 20.4096 121.252 19.7651C120.112 19.1041 119.22 18.1456 118.575 16.8897C117.931 15.6173 117.608 14.0969 117.608 12.3287C117.608 10.577 117.939 9.07321 118.6 7.81728C119.261 6.54483 120.203 5.56983 121.426 4.89229C122.649 4.21475 124.095 3.87598 125.764 3.87598C127.631 3.87598 129.135 4.20648 130.275 4.8675C131.415 5.52851 132.316 6.5944 132.977 8.06516L129.036 9.62681C128.837 8.81707 128.465 8.21389 127.92 7.81728C127.375 7.42067 126.697 7.22237 125.888 7.22237C124.632 7.22237 123.665 7.65203 122.987 8.51135C122.326 9.37067 121.996 10.6349 121.996 12.3039C121.996 15.7412 123.334 17.4598 126.011 17.4598C127.02 17.4598 127.829 17.2285 128.441 16.7658C129.069 16.3031 129.383 15.6338 129.383 14.7579V14.5101H125.317V11.6346H133.002Z" fill="#2E3A59"/>
<path d="M149.304 17.1872V20.484H136.24V4.12386H148.981V7.42067H140.504V10.7423H147.246V13.8408H140.504V17.1872H149.304Z" fill="#2E3A59"/>
</g>
<defs>
<radialGradient id="paint0_radial_23415_14069" cx="0" cy="0" r="1" gradientUnits="userSpaceOnUse" gradientTransform="translate(20.1451 -2.22279) rotate(90) scale(21.9032 21.9978)">
<stop stop-color="#FFE600"/>
<stop offset="1" stop-color="#FFE600" stop-opacity="0"/>
</radialGradient>
<clipPath id="clip0_23415_14069">
<rect width="149.304" height="24" fill="white"/>
</clipPath>
</defs>
</svg>
