<svg width="25" height="24" viewBox="0 0 25 24" fill="none" xmlns="http://www.w3.org/2000/svg">
<rect x="0.303711" width="24" height="24" rx="12" fill="#FFF4D8"/>
<path d="M8.58396 11.5549H8.85242V11.8201H8.58396V11.5549Z" fill="#19110F"/>
<path d="M8.58396 11.8201H8.85242V12.0852H8.58396V11.8201Z" fill="#DD941A"/>
<path d="M8.58396 12.0852H8.85242V12.3504H8.58396V12.0852Z" fill="#DD941A"/>
<path d="M8.58396 12.3504H8.85242V12.6156H8.58396V12.3504Z" fill="#FFF493"/>
<path d="M8.58396 12.6155H8.85242V12.8807H8.58396V12.6155Z" fill="#FFF493"/>
<path d="M8.58396 12.8807H8.85242V13.1458H8.58396V12.8807Z" fill="#19110F"/>
<path d="M8.8524 11.5549H9.12085V11.8201H8.8524V11.5549Z" fill="#19110F"/>
<path d="M8.8524 11.8201H9.12085V12.0852H8.8524V11.8201Z" fill="#DD941A"/>
<path d="M8.85239 12.0852H9.12085V12.3504H8.85239V12.0852Z" fill="#DD941A"/>
<path d="M8.8524 12.3504H9.12085V12.6156H8.8524V12.3504Z" fill="#DD941A"/>
<path d="M8.8524 12.6155H9.12085V12.8807H8.8524V12.6155Z" fill="#FFF493"/>
<path d="M8.8524 12.8807H9.12085V13.1458H8.8524V12.8807Z" fill="#19110F"/>
<path d="M8.04697 11.0246H8.31543V11.2897H8.04697V11.0246Z" fill="#19110F"/>
<path d="M8.04697 11.2898H8.31543V11.5549H8.04697V11.2898Z" fill="#DD941A"/>
<path d="M8.04697 11.5549H8.31543V11.8201H8.04697V11.5549Z" fill="#DD941A"/>
<path d="M8.04697 11.8201H8.31543V12.0852H8.04697V11.8201Z" fill="#FFF493"/>
<path d="M8.04697 12.0852H8.31543V12.3504H8.04697V12.0852Z" fill="#FFF493"/>
<path d="M8.04697 12.3504H8.31543V12.6156H8.04697V12.3504Z" fill="#FFF493"/>
<path d="M8.04697 12.6155H8.31543V12.8807H8.04697V12.6155Z" fill="#19110F"/>
<path d="M8.31541 11.2898H8.58386V11.5549H8.31541V11.2898Z" fill="#19110F"/>
<path d="M8.31541 11.5549H8.58386V11.8201H8.31541V11.5549Z" fill="#DD941A"/>
<path d="M8.31541 11.8201H8.58386V12.0852H8.31541V11.8201Z" fill="#DD941A"/>
<path d="M8.31541 12.0852H8.58386V12.3504H8.31541V12.0852Z" fill="#FFF493"/>
<path d="M8.31541 12.3504H8.58386V12.6156H8.31541V12.3504Z" fill="#FFF493"/>
<path d="M8.31541 12.6155H8.58386V12.8807H8.31541V12.6155Z" fill="#19110F"/>
<path d="M9.12082 11.2898H9.38928V11.5549H9.12082V11.2898Z" fill="#19110F"/>
<path d="M9.12082 11.5549H9.38928V11.8201H9.12082V11.5549Z" fill="#DD941A"/>
<path d="M9.12082 11.8201H9.38928V12.0852H9.12082V11.8201Z" fill="#DD941A"/>
<path d="M9.12082 12.0852H9.38928V12.3504H9.12082V12.0852Z" fill="#DD941A"/>
<path d="M9.12082 12.3504H9.38928V12.6156H9.12082V12.3504Z" fill="#DD941A"/>
<path d="M9.12082 12.6155H9.38928V12.8807H9.12082V12.6155Z" fill="#FFF493"/>
<path d="M9.12082 12.8807H9.38928V13.1458H9.12082V12.8807Z" fill="#19110F"/>
<path d="M9.38926 11.2898H9.65771V11.5549H9.38926V11.2898Z" fill="#19110F"/>
<path d="M9.38926 11.5549H9.65771V11.8201H9.38926V11.5549Z" fill="#DD941A"/>
<path d="M9.38926 11.8201H9.65771V12.0852H9.38926V11.8201Z" fill="#DD941A"/>
<path d="M9.38926 12.0852H9.65771V12.3504H9.38926V12.0852Z" fill="#DD941A"/>
<path d="M9.38926 12.3504H9.65771V12.6156H9.38926V12.3504Z" fill="#DD941A"/>
<path d="M9.38926 12.6155H9.65771V12.8807H9.38926V12.6155Z" fill="#DD941A"/>
<path d="M9.38926 12.8807H9.65771V13.1458H9.38926V12.8807Z" fill="#DD941A"/>
<path d="M9.38926 13.1458H9.65771V13.411H9.38926V13.1458Z" fill="#19110F"/>
<path d="M7.77854 10.7595H8.047V11.0246H7.77854V10.7595Z" fill="#19110F"/>
<path d="M7.77854 11.0246H8.047V11.2897H7.77854V11.0246Z" fill="#DD941A"/>
<path d="M7.77855 11.2898H8.047V11.5549H7.77855V11.2898Z" fill="#DD941A"/>
<path d="M7.77855 11.5549H8.047V11.8201H7.77855V11.5549Z" fill="#DD941A"/>
<path d="M7.77855 11.8201H8.047V12.0852H7.77855V11.8201Z" fill="#FFF493"/>
<path d="M7.77854 12.0852H8.047V12.3504H7.77854V12.0852Z" fill="#FFF493"/>
<path d="M7.77855 12.3504H8.047V12.6156H7.77855V12.3504Z" fill="#19110F"/>
<path d="M7.51011 10.4943H7.77856V10.7595H7.51011V10.4943Z" fill="#19110F"/>
<path d="M7.51011 10.7595H7.77856V11.0246H7.51011V10.7595Z" fill="#DD941A"/>
<path d="M7.51011 11.0246H7.77856V11.2897H7.51011V11.0246Z" fill="#DD941A"/>
<path d="M7.51011 11.2898H7.77856V11.5549H7.51011V11.2898Z" fill="#DD941A"/>
<path d="M7.51011 11.5549H7.77856V11.8201H7.51011V11.5549Z" fill="#FFF493"/>
<path d="M7.51011 11.8201H7.77856V12.0852H7.51011V11.8201Z" fill="#FFF493"/>
<path d="M7.51011 12.0852H7.77856V12.3504H7.51011V12.0852Z" fill="#19110F"/>
<path d="M7.24168 10.2292H7.51013V10.4943H7.24168V10.2292Z" fill="#19110F"/>
<path d="M7.24168 10.4943H7.51013V10.7595H7.24168V10.4943Z" fill="#DD941A"/>
<path d="M7.24167 10.7595H7.51013V11.0246H7.24167V10.7595Z" fill="#DD941A"/>
<path d="M7.24167 11.0246H7.51013V11.2897H7.24167V11.0246Z" fill="#DD941A"/>
<path d="M7.24168 11.2898H7.51013V11.5549H7.24168V11.2898Z" fill="#FFF493"/>
<path d="M7.24168 11.5549H7.51013V11.8201H7.24168V11.5549Z" fill="#FFF493"/>
<path d="M7.24168 11.8201H7.51013V12.0852H7.24168V11.8201Z" fill="#19110F"/>
<path d="M6.97312 9.96405H7.24158V10.2292H6.97312V9.96405Z" fill="#19110F"/>
<path d="M6.97312 10.2292H7.24158V10.4943H6.97312V10.2292Z" fill="#DD941A"/>
<path d="M6.97312 10.4943H7.24158V10.7595H6.97312V10.4943Z" fill="#DD941A"/>
<path d="M6.97312 10.7595H7.24158V11.0246H6.97312V10.7595Z" fill="#DD941A"/>
<path d="M6.97312 11.0246H7.24158V11.2897H6.97312V11.0246Z" fill="#FFF493"/>
<path d="M6.97312 11.2898H7.24158V11.5549H6.97312V11.2898Z" fill="#FFF493"/>
<path d="M6.97312 11.5549H7.24158V11.8201H6.97312V11.5549Z" fill="#19110F"/>
<path d="M6.70469 9.69885H6.97314V9.964H6.70469V9.69885Z" fill="#19110F"/>
<path d="M6.70468 9.96405H6.97314V10.2292H6.70468V9.96405Z" fill="#DD941A"/>
<path d="M6.70468 10.2292H6.97314V10.4943H6.70468V10.2292Z" fill="#DD941A"/>
<path d="M6.70468 10.4943H6.97314V10.7595H6.70468V10.4943Z" fill="#DD941A"/>
<path d="M6.70469 10.7595H6.97314V11.0246H6.70469V10.7595Z" fill="#FFF493"/>
<path d="M6.70469 11.0246H6.97314V11.2897H6.70469V11.0246Z" fill="#19110F"/>
<path d="M6.70468 11.2898H6.97314V11.5549H6.70468V11.2898Z" fill="#19110F"/>
<path d="M6.43625 9.43372H6.70471V9.69887H6.43625V9.43372Z" fill="#19110F"/>
<path d="M6.43626 9.69885H6.70471V9.964H6.43626V9.69885Z" fill="#DD941A"/>
<path d="M6.43625 9.96405H6.70471V10.2292H6.43625V9.96405Z" fill="#DD941A"/>
<path d="M6.43625 10.2292H6.70471V10.4943H6.43625V10.2292Z" fill="#DD941A"/>
<path d="M6.43625 10.4943H6.70471V10.7595H6.43625V10.4943Z" fill="#FFF493"/>
<path d="M6.43626 10.7595H6.70471V11.0246H6.43626V10.7595Z" fill="#19110F"/>
<path d="M6.16782 9.16858H6.43628V9.43373H6.16782V9.16858Z" fill="#19110F"/>
<path d="M6.16782 9.43372H6.43628V9.69887H6.16782V9.43372Z" fill="#DD941A"/>
<path d="M6.16782 9.69885H6.43628V9.964H6.16782V9.69885Z" fill="#DD941A"/>
<path d="M6.16782 9.96405H6.43628V10.2292H6.16782V9.96405Z" fill="#DD941A"/>
<path d="M6.16782 10.2292H6.43628V10.4943H6.16782V10.2292Z" fill="#FFF493"/>
<path d="M6.16782 10.4943H6.43628V10.7595H6.16782V10.4943Z" fill="#19110F"/>
<path d="M5.63096 8.90344H5.89941V9.16859H5.63096V8.90344Z" fill="#19110F"/>
<path d="M5.63096 9.16858H5.89941V9.43373H5.63096V9.16858Z" fill="#DD941A"/>
<path d="M5.63096 9.43372H5.89941V9.69887H5.63096V9.43372Z" fill="#DD941A"/>
<path d="M5.63096 9.69885H5.89941V9.964H5.63096V9.69885Z" fill="#19110F"/>
<path d="M5.89939 8.90344H6.16785V9.16859H5.89939V8.90344Z" fill="#19110F"/>
<path d="M5.89939 9.16858H6.16785V9.43373H5.89939V9.16858Z" fill="#DD941A"/>
<path d="M5.89939 9.43372H6.16785V9.69887H5.89939V9.43372Z" fill="#DD941A"/>
<path d="M5.89939 9.69885H6.16785V9.964H5.89939V9.69885Z" fill="#DD941A"/>
<path d="M5.89939 9.96405H6.16785V10.2292H5.89939V9.96405Z" fill="#19110F"/>
<path d="M5.89939 10.2292H6.16785V10.4943H5.89939V10.2292Z" fill="#19110F"/>
<path d="M4.8591 8.37311H5.12756V8.63826H4.8591V8.37311Z" fill="#19110F"/>
<path d="M4.8591 8.63824H5.12756V8.9034H4.8591V8.63824Z" fill="#DD941A"/>
<path d="M4.8591 8.90344H5.12756V9.16859H4.8591V8.90344Z" fill="#19110F"/>
<path d="M5.09397 8.63824H5.36243V8.9034H5.09397V8.63824Z" fill="#19110F"/>
<path d="M5.09397 8.90344H5.36243V9.16859H5.09397V8.90344Z" fill="#DD941A"/>
<path d="M5.09397 9.16858H5.36243V9.43373H5.09397V9.16858Z" fill="#19110F"/>
<path d="M5.3624 8.63824H5.63086V8.9034H5.3624V8.63824Z" fill="#19110F"/>
<path d="M5.36241 8.90344H5.63086V9.16859H5.36241V8.90344Z" fill="#DD941A"/>
<path d="M5.36241 9.16858H5.63086V9.43373H5.36241V9.16858Z" fill="#DD941A"/>
<path d="M5.36241 9.43372H5.63086V9.69887H5.36241V9.43372Z" fill="#19110F"/>
<path d="M14.49 7.84283H14.7584V8.10799H14.49V7.84283Z" fill="#19110F"/>
<path d="M4.05368 8.10797H4.32214V8.37312H4.05368V8.10797Z" fill="#19110F"/>
<path d="M4.05368 8.37311H4.32214V8.63826H4.05368V8.37311Z" fill="#19110F"/>
<path d="M4.32211 8.10797H4.59058V8.37312H4.32211V8.10797Z" fill="#19110F"/>
<path d="M4.32211 8.37311H4.59058V8.63826H4.32211V8.37311Z" fill="#19110F"/>
<path d="M4.32211 8.63824H4.59058V8.9034H4.32211V8.63824Z" fill="#19110F"/>
<path d="M4.59068 8.37311H4.85913V8.63826H4.59068V8.37311Z" fill="#19110F"/>
<path d="M4.59068 8.63824H4.85913V8.9034H4.59068V8.63824Z" fill="#19110F"/>
<path d="M4.59067 8.90344H4.85913V9.16859H4.59067V8.90344Z" fill="#19110F"/>
<path d="M14.49 14.3832H14.7584V14.6298H14.49V14.3832Z" fill="#19110F"/>
<path d="M13.9531 15.5322H14.2216V15.7974H13.9531V15.5322Z" fill="#19110F"/>
<path d="M13.9531 15.7974H14.2216V16.0625H13.9531V15.7974Z" fill="#DD941A"/>
<path d="M13.9531 16.0625H14.2216V16.3277H13.9531V16.0625Z" fill="#19110F"/>
<path d="M13.9531 16.3276H14.2216V16.5928H13.9531V16.3276Z" fill="#DD941A"/>
<path d="M13.9531 16.5928H14.2216V16.858H13.9531V16.5928Z" fill="#19110F"/>
<path d="M14.2215 15.5322H14.49V15.7974H14.2215V15.5322Z" fill="#19110F"/>
<path d="M14.2215 15.7974H14.49V16.0625H14.2215V15.7974Z" fill="#19110F"/>
<path d="M14.2215 16.0625H14.49V16.3277H14.2215V16.0625Z" fill="#19110F"/>
<path d="M14.2215 16.3276H14.49V16.5928H14.2215V16.3276Z" fill="#19110F"/>
<path d="M14.2215 16.5928H14.49V16.858H14.2215V16.5928Z" fill="#19110F"/>
<path d="M13.4161 15.267H13.6846V15.5322H13.4161V15.267Z" fill="#19110F"/>
<path d="M13.4161 15.5322H13.6846V15.7974H13.4161V15.5322Z" fill="#DD941A"/>
<path d="M13.4161 15.7974H13.6846V16.0625H13.4161V15.7974Z" fill="#19110F"/>
<path d="M13.4161 16.0625H13.6846V16.3277H13.4161V16.0625Z" fill="#DD941A"/>
<path d="M13.4161 16.3276H13.6846V16.5928H13.4161V16.3276Z" fill="#DD941A"/>
<path d="M13.4161 16.5928H13.6846V16.858H13.4161V16.5928Z" fill="#19110F"/>
<path d="M13.6845 15.267H13.953V15.5322H13.6845V15.267Z" fill="#19110F"/>
<path d="M13.6845 15.5322H13.953V15.7974H13.6845V15.5322Z" fill="#DD941A"/>
<path d="M13.6845 15.7974H13.953V16.0625H13.6845V15.7974Z" fill="#19110F"/>
<path d="M13.6845 16.0625H13.953V16.3277H13.6845V16.0625Z" fill="#19110F"/>
<path d="M13.6845 16.3276H13.953V16.5928H13.6845V16.3276Z" fill="#DD941A"/>
<path d="M13.6845 16.5928H13.953V16.858H13.6845V16.5928Z" fill="#19110F"/>
<path d="M12.8792 15.0019H13.1477V15.267H12.8792V15.0019Z" fill="#19110F"/>
<path d="M12.8792 15.267H13.1477V15.5322H12.8792V15.267Z" fill="#DD941A"/>
<path d="M12.8793 15.5322H13.1477V15.7974H12.8793V15.5322Z" fill="#19110F"/>
<path d="M12.8793 15.7974H13.1477V16.0625H12.8793V15.7974Z" fill="#DD941A"/>
<path d="M12.8792 16.0625H13.1477V16.3277H12.8792V16.0625Z" fill="#DD941A"/>
<path d="M12.8792 16.3276H13.1477V16.5928H12.8792V16.3276Z" fill="#19110F"/>
<path d="M13.1477 15.267H13.4161V15.5322H13.1477V15.267Z" fill="#19110F"/>
<path d="M13.1477 15.5322H13.4161V15.7974H13.1477V15.5322Z" fill="#DD941A"/>
<path d="M13.1477 15.7974H13.4161V16.0625H13.1477V15.7974Z" fill="#19110F"/>
<path d="M13.1477 16.0625H13.4161V16.3277H13.1477V16.0625Z" fill="#DD941A"/>
<path d="M13.1477 16.3276H13.4161V16.5928H13.1477V16.3276Z" fill="#DD941A"/>
<path d="M13.1477 16.5928H13.4161V16.858H13.1477V16.5928Z" fill="#19110F"/>
<path d="M12.6108 15.0019H12.8793V15.267H12.6108V15.0019Z" fill="#19110F"/>
<path d="M12.6108 15.267H12.8793V15.5322H12.6108V15.267Z" fill="#DD941A"/>
<path d="M12.6108 15.5322H12.8793V15.7974H12.6108V15.5322Z" fill="#19110F"/>
<path d="M12.6108 15.7974H12.8793V16.0625H12.6108V15.7974Z" fill="#DD941A"/>
<path d="M12.6108 16.0625H12.8793V16.3277H12.6108V16.0625Z" fill="#DD941A"/>
<path d="M12.6108 16.3276H12.8793V16.5928H12.6108V16.3276Z" fill="#19110F"/>
<path d="M15.2618 13.8087H15.5303V14.0739H15.2618V13.8087Z" fill="#19110F"/>
<path d="M15.2618 14.0739H15.5303V14.339H15.2618V14.0739Z" fill="#19110F"/>
<path d="M15.2618 14.339H15.5303V14.6041H15.2618V14.339Z" fill="#19110F"/>
<path d="M15.0071 13.563H15.2755V13.8282H15.0071V13.563Z" fill="#19110F"/>
<path d="M15.0071 13.8282H15.2755V14.0933H15.0071V13.8282Z" fill="#DD941A"/>
<path d="M15.0071 14.0933H15.2755V14.3585H15.0071V14.0933Z" fill="#DD941A"/>
<path d="M15.0071 14.3585H15.2755V14.6237H15.0071V14.3585Z" fill="#DD941A"/>
<path d="M15.0071 14.6237H15.2755V14.8888H15.0071V14.6237Z" fill="#19110F"/>
<path d="M9.65769 11.2898H9.92615V11.5549H9.65769V11.2898Z" fill="#19110F"/>
<path d="M9.65769 11.5549H9.92615V11.8201H9.65769V11.5549Z" fill="#DD941A"/>
<path d="M9.65769 11.8201H9.92615V12.0852H9.65769V11.8201Z" fill="#DD941A"/>
<path d="M9.65769 12.0852H9.92615V12.3504H9.65769V12.0852Z" fill="#DD941A"/>
<path d="M9.65769 12.3504H9.92615V12.6156H9.65769V12.3504Z" fill="#DD941A"/>
<path d="M9.65769 12.6155H9.92615V12.8807H9.65769V12.6155Z" fill="#DD941A"/>
<path d="M9.65769 12.8807H9.92615V13.1458H9.65769V12.8807Z" fill="#DD941A"/>
<path d="M9.65769 13.1458H9.92615V13.411H9.65769V13.1458Z" fill="#DD941A"/>
<path d="M9.65769 13.411H9.92615V13.6762H9.65769V13.411Z" fill="#DD941A"/>
<path d="M9.65769 13.6761H9.92615V13.9413H9.65769V13.6761Z" fill="#19110F"/>
<path d="M9.92625 11.2898H10.1947V11.5549H9.92625V11.2898Z" fill="#19110F"/>
<path d="M9.92625 11.5549H10.1947V11.8201H9.92625V11.5549Z" fill="#DD941A"/>
<path d="M9.92625 11.8201H10.1947V12.0852H9.92625V11.8201Z" fill="#DD941A"/>
<path d="M9.92625 12.0852H10.1947V12.3504H9.92625V12.0852Z" fill="#DD941A"/>
<path d="M9.92625 12.3504H10.1947V12.6156H9.92625V12.3504Z" fill="#DD941A"/>
<path d="M9.92625 12.6155H10.1947V12.8807H9.92625V12.6155Z" fill="#DD941A"/>
<path d="M9.92625 12.8807H10.1947V13.1458H9.92625V12.8807Z" fill="#DD941A"/>
<path d="M9.92625 13.1458H10.1947V13.411H9.92625V13.1458Z" fill="#DD941A"/>
<path d="M9.92625 13.411H10.1947V13.6762H9.92625V13.411Z" fill="#DD941A"/>
<path d="M9.92625 13.6761H10.1947V13.9413H9.92625V13.6761Z" fill="#DD941A"/>
<path d="M9.92625 13.9413H10.1947V14.2064H9.92625V13.9413Z" fill="#19110F"/>
<path d="M10.1947 11.0246H10.4631V11.2897H10.1947V11.0246Z" fill="#19110F"/>
<path d="M10.1947 11.2898H10.4631V11.5549H10.1947V11.2898Z" fill="#DD941A"/>
<path d="M10.1947 11.5549H10.4631V11.8201H10.1947V11.5549Z" fill="#DD941A"/>
<path d="M10.1947 11.8201H10.4631V12.0852H10.1947V11.8201Z" fill="#DD941A"/>
<path d="M10.1947 12.0852H10.4631V12.3504H10.1947V12.0852Z" fill="#DD941A"/>
<path d="M10.1947 12.3504H10.4631V12.6156H10.1947V12.3504Z" fill="#DD941A"/>
<path d="M10.1947 12.6155H10.4631V12.8807H10.1947V12.6155Z" fill="#DD941A"/>
<path d="M10.1947 12.8807H10.4631V13.1458H10.1947V12.8807Z" fill="#DD941A"/>
<path d="M10.1947 13.1458H10.4631V13.411H10.1947V13.1458Z" fill="#DD941A"/>
<path d="M10.1947 13.411H10.4631V13.6762H10.1947V13.411Z" fill="#DD941A"/>
<path d="M10.1947 13.6761H10.4631V13.9413H10.1947V13.6761Z" fill="#DD941A"/>
<path d="M10.1947 13.9413H10.4631V14.2064H10.1947V13.9413Z" fill="#DD941A"/>
<path d="M10.1947 14.2064H10.4631V14.4716H10.1947V14.2064Z" fill="#19110F"/>
<path d="M10.4631 11.0246H10.7316V11.2897H10.4631V11.0246Z" fill="#19110F"/>
<path d="M10.4631 11.2898H10.7316V11.5549H10.4631V11.2898Z" fill="#DD941A"/>
<path d="M10.4631 11.5549H10.7316V11.8201H10.4631V11.5549Z" fill="#DD941A"/>
<path d="M10.4631 11.8201H10.7316V12.0852H10.4631V11.8201Z" fill="#DD941A"/>
<path d="M10.4631 12.0852H10.7316V12.3504H10.4631V12.0852Z" fill="#DD941A"/>
<path d="M10.4631 12.3504H10.7316V12.6156H10.4631V12.3504Z" fill="#DD941A"/>
<path d="M10.4631 12.6155H10.7316V12.8807H10.4631V12.6155Z" fill="#DD941A"/>
<path d="M10.4631 12.8807H10.7316V13.1458H10.4631V12.8807Z" fill="#DD941A"/>
<path d="M10.4631 13.1458H10.7316V13.411H10.4631V13.1458Z" fill="#DD941A"/>
<path d="M10.4631 13.411H10.7316V13.6762H10.4631V13.411Z" fill="#DD941A"/>
<path d="M10.4631 13.6761H10.7316V13.9413H10.4631V13.6761Z" fill="#DD941A"/>
<path d="M10.4631 13.9413H10.7316V14.2064H10.4631V13.9413Z" fill="#DD941A"/>
<path d="M10.4631 14.2064H10.7316V14.4716H10.4631V14.2064Z" fill="#DD941A"/>
<path d="M10.4631 14.4716H10.7316V14.7368H10.4631V14.4716Z" fill="#19110F"/>
<path d="M10.7315 11.0246H11V11.2897H10.7315V11.0246Z" fill="#19110F"/>
<path d="M10.7315 11.2898H11V11.5549H10.7315V11.2898Z" fill="#DD941A"/>
<path d="M10.7315 11.5549H11V11.8201H10.7315V11.5549Z" fill="#DD941A"/>
<path d="M10.7315 11.8201H11V12.0852H10.7315V11.8201Z" fill="#DD941A"/>
<path d="M10.7315 12.0852H11V12.3504H10.7315V12.0852Z" fill="#DD941A"/>
<path d="M10.7315 12.3504H11V12.6156H10.7315V12.3504Z" fill="#DD941A"/>
<path d="M10.7315 12.6155H11V12.8807H10.7315V12.6155Z" fill="#DD941A"/>
<path d="M10.7315 12.8807H11V13.1458H10.7315V12.8807Z" fill="#DD941A"/>
<path d="M10.7315 13.1458H11V13.411H10.7315V13.1458Z" fill="#DD941A"/>
<path d="M10.7315 13.411H11V13.6762H10.7315V13.411Z" fill="#DD941A"/>
<path d="M10.7315 13.6761H11V13.9413H10.7315V13.6761Z" fill="#DD941A"/>
<path d="M10.7315 13.9413H11V14.2064H10.7315V13.9413Z" fill="#DD941A"/>
<path d="M10.7315 14.2064H11V14.4716H10.7315V14.2064Z" fill="#DD941A"/>
<path d="M10.7315 14.4716H11V14.7368H10.7315V14.4716Z" fill="#DD941A"/>
<path d="M10.7315 14.7368H11V15.0019H10.7315V14.7368Z" fill="#19110F"/>
<path d="M11 11.0246H11.2684V11.2897H11V11.0246Z" fill="#19110F"/>
<path d="M11 11.2898H11.2684V11.5549H11V11.2898Z" fill="#DD941A"/>
<path d="M11 11.5549H11.2684V11.8201H11V11.5549Z" fill="#DD941A"/>
<path d="M11 11.8201H11.2684V12.0852H11V11.8201Z" fill="#DD941A"/>
<path d="M11 12.0852H11.2684V12.3504H11V12.0852Z" fill="#DD941A"/>
<path d="M11 12.3504H11.2684V12.6156H11V12.3504Z" fill="#DD941A"/>
<path d="M11 12.6155H11.2684V12.8807H11V12.6155Z" fill="#DD941A"/>
<path d="M11 12.8807H11.2684V13.1458H11V12.8807Z" fill="#DD941A"/>
<path d="M11 13.1458H11.2684V13.411H11V13.1458Z" fill="#DD941A"/>
<path d="M11 13.411H11.2684V13.6762H11V13.411Z" fill="#DD941A"/>
<path d="M11 13.6761H11.2684V13.9413H11V13.6761Z" fill="#DD941A"/>
<path d="M11 13.9413H11.2684V14.2064H11V13.9413Z" fill="#DD941A"/>
<path d="M11 14.2064H11.2684V14.4716H11V14.2064Z" fill="#DD941A"/>
<path d="M11 14.4716H11.2684V14.7368H11V14.4716Z" fill="#19110F"/>
<path d="M11 14.7368H11.2684V15.0019H11V14.7368Z" fill="#19110F"/>
<path d="M11 15.0019H11.2684V15.267H11V15.0019Z" fill="#19110F"/>
<path d="M11 15.267H11.2684V15.5322H11V15.267Z" fill="#19110F"/>
<path d="M11.2685 11.0246H11.537V11.2897H11.2685V11.0246Z" fill="#19110F"/>
<path d="M11.2685 11.2898H11.537V11.5549H11.2685V11.2898Z" fill="#DD941A"/>
<path d="M11.2685 11.5549H11.537V11.8201H11.2685V11.5549Z" fill="#DD941A"/>
<path d="M11.2685 11.8201H11.537V12.0852H11.2685V11.8201Z" fill="#DD941A"/>
<path d="M11.2685 12.0852H11.537V12.3504H11.2685V12.0852Z" fill="#DD941A"/>
<path d="M11.2685 12.3504H11.537V12.6156H11.2685V12.3504Z" fill="#DD941A"/>
<path d="M11.2685 12.6155H11.537V12.8807H11.2685V12.6155Z" fill="#DD941A"/>
<path d="M11.2685 12.8807H11.537V13.1458H11.2685V12.8807Z" fill="#DD941A"/>
<path d="M11.2685 13.1458H11.537V13.411H11.2685V13.1458Z" fill="#DD941A"/>
<path d="M11.2685 13.411H11.537V13.6762H11.2685V13.411Z" fill="#DD941A"/>
<path d="M11.2685 13.6761H11.537V13.9413H11.2685V13.6761Z" fill="#DD941A"/>
<path d="M11.2685 13.9413H11.537V14.2064H11.2685V13.9413Z" fill="#DD941A"/>
<path d="M11.2685 14.2064H11.537V14.4716H11.2685V14.2064Z" fill="#DD941A"/>
<path d="M11.2685 14.4716H11.537V14.7368H11.2685V14.4716Z" fill="#DD941A"/>
<path d="M11.2685 14.7368H11.537V15.0019H11.2685V14.7368Z" fill="#DD941A"/>
<path d="M11.2685 15.0019H11.537V15.267H11.2685V15.0019Z" fill="#DD941A"/>
<path d="M11.2685 15.267H11.537V15.5322H11.2685V15.267Z" fill="#19110F"/>
<path d="M11.2685 15.5322H11.537V15.7974H11.2685V15.5322Z" fill="#19110F"/>
<path d="M11.2685 15.7974H11.537V16.0625H11.2685V15.7974Z" fill="#19110F"/>
<path d="M11.537 11.0246H11.8054V11.2897H11.537V11.0246Z" fill="#19110F"/>
<path d="M11.537 11.2898H11.8054V11.5549H11.537V11.2898Z" fill="#DD941A"/>
<path d="M11.537 11.5549H11.8054V11.8201H11.537V11.5549Z" fill="#DD941A"/>
<path d="M11.537 11.8201H11.8054V12.0852H11.537V11.8201Z" fill="#DD941A"/>
<path d="M11.537 12.0852H11.8054V12.3504H11.537V12.0852Z" fill="#19110F"/>
<path d="M11.537 12.3504H11.8054V12.6156H11.537V12.3504Z" fill="#DD941A"/>
<path d="M11.537 12.6155H11.8054V12.8807H11.537V12.6155Z" fill="#DD941A"/>
<path d="M11.537 12.8807H11.8054V13.1458H11.537V12.8807Z" fill="#DD941A"/>
<path d="M11.537 13.1458H11.8054V13.411H11.537V13.1458Z" fill="#DD941A"/>
<path d="M11.537 13.411H11.8054V13.6762H11.537V13.411Z" fill="#DD941A"/>
<path d="M11.537 13.6761H11.8054V13.9413H11.537V13.6761Z" fill="#DD941A"/>
<path d="M11.537 13.9413H11.8054V14.2064H11.537V13.9413Z" fill="#DD941A"/>
<path d="M11.537 14.2064H11.8054V14.4716H11.537V14.2064Z" fill="#DD941A"/>
<path d="M11.537 14.4716H11.8054V14.7368H11.537V14.4716Z" fill="#DD941A"/>
<path d="M11.537 14.7368H11.8054V15.0019H11.537V14.7368Z" fill="#DD941A"/>
<path d="M11.537 15.0019H11.8054V15.267H11.537V15.0019Z" fill="#DD941A"/>
<path d="M11.537 15.267H11.8054V15.5322H11.537V15.267Z" fill="#DD941A"/>
<path d="M11.537 15.5322H11.8054V15.7974H11.537V15.5322Z" fill="#DD941A"/>
<path d="M11.537 15.7974H11.8054V16.0625H11.537V15.7974Z" fill="#19110F"/>
<path d="M11.8054 11.0246H12.0739V11.2897H11.8054V11.0246Z" fill="#19110F"/>
<path d="M11.8054 11.2898H12.0739V11.5549H11.8054V11.2898Z" fill="#DD941A"/>
<path d="M11.8054 11.5549H12.0739V11.8201H11.8054V11.5549Z" fill="#DD941A"/>
<path d="M11.8054 11.8201H12.0739V12.0852H11.8054V11.8201Z" fill="#DD941A"/>
<path d="M11.8054 12.0852H12.0739V12.3504H11.8054V12.0852Z" fill="#DD941A"/>
<path d="M11.8054 12.3504H12.0739V12.6156H11.8054V12.3504Z" fill="#19110F"/>
<path d="M11.8054 12.6155H12.0739V12.8807H11.8054V12.6155Z" fill="#DD941A"/>
<path d="M11.8054 12.8807H12.0739V13.1458H11.8054V12.8807Z" fill="#DD941A"/>
<path d="M11.8054 13.1458H12.0739V13.411H11.8054V13.1458Z" fill="#DD941A"/>
<path d="M11.8054 13.411H12.0739V13.6762H11.8054V13.411Z" fill="#DD941A"/>
<path d="M11.8054 13.6761H12.0739V13.9413H11.8054V13.6761Z" fill="#DD941A"/>
<path d="M11.8054 13.9413H12.0739V14.2064H11.8054V13.9413Z" fill="#DD941A"/>
<path d="M11.8054 14.2064H12.0739V14.4716H11.8054V14.2064Z" fill="#19110F"/>
<path d="M11.8054 14.4716H12.0739V14.7368H11.8054V14.4716Z" fill="#19110F"/>
<path d="M11.8054 14.7368H12.0739V15.0019H11.8054V14.7368Z" fill="#19110F"/>
<path d="M11.8054 15.0019H12.0739V15.267H11.8054V15.0019Z" fill="#19110F"/>
<path d="M11.8054 15.267H12.0739V15.5322H11.8054V15.267Z" fill="#19110F"/>
<path d="M11.8054 15.5322H12.0739V15.7974H11.8054V15.5322Z" fill="#DD941A"/>
<path d="M11.8054 15.7974H12.0739V16.0625H11.8054V15.7974Z" fill="#DD941A"/>
<path d="M11.8054 16.0625H12.0739V16.3277H11.8054V16.0625Z" fill="#19110F"/>
<path d="M12.0738 11.0246H12.3423V11.2897H12.0738V11.0246Z" fill="#19110F"/>
<path d="M12.0738 11.2898H12.3423V11.5549H12.0738V11.2898Z" fill="#DD941A"/>
<path d="M12.0738 11.5549H12.3423V11.8201H12.0738V11.5549Z" fill="#DD941A"/>
<path d="M12.0738 11.8201H12.3423V12.0852H12.0738V11.8201Z" fill="#DD941A"/>
<path d="M12.0738 12.0852H12.3423V12.3504H12.0738V12.0852Z" fill="#DD941A"/>
<path d="M12.0738 12.3504H12.3423V12.6156H12.0738V12.3504Z" fill="#19110F"/>
<path d="M12.0738 12.6155H12.3423V12.8807H12.0738V12.6155Z" fill="#DD941A"/>
<path d="M12.0738 12.8807H12.3423V13.1458H12.0738V12.8807Z" fill="#DD941A"/>
<path d="M12.0738 13.1458H12.3423V13.411H12.0738V13.1458Z" fill="#DD941A"/>
<path d="M12.0738 13.411H12.3423V13.6762H12.0738V13.411Z" fill="#DD941A"/>
<path d="M12.0738 13.6761H12.3423V13.9413H12.0738V13.6761Z" fill="#DD941A"/>
<path d="M12.0738 13.9413H12.3423V14.2064H12.0738V13.9413Z" fill="#19110F"/>
<path d="M12.0738 14.2064H12.3423V14.4716H12.0738V14.2064Z" fill="#FFF493"/>
<path d="M12.0738 14.4716H12.3423V14.7368H12.0738V14.4716Z" fill="#E1B544"/>
<path d="M12.0738 14.7368H12.3423V15.0019H12.0738V14.7368Z" fill="#DD941A"/>
<path d="M12.0738 15.0019H12.3423V15.267H12.0738V15.0019Z" fill="#DD941A"/>
<path d="M12.0738 15.267H12.3423V15.5322H12.0738V15.267Z" fill="#19110F"/>
<path d="M12.0738 15.5322H12.3423V15.7974H12.0738V15.5322Z" fill="#DD941A"/>
<path d="M12.0738 15.7974H12.3423V16.0625H12.0738V15.7974Z" fill="#DD941A"/>
<path d="M12.0738 16.0625H12.3423V16.3277H12.0738V16.0625Z" fill="#19110F"/>
<path d="M12.3423 11.0246H12.6107V11.2897H12.3423V11.0246Z" fill="#19110F"/>
<path d="M12.3423 11.2898H12.6107V11.5549H12.3423V11.2898Z" fill="#DD941A"/>
<path d="M12.3423 11.5549H12.6107V11.8201H12.3423V11.5549Z" fill="#DD941A"/>
<path d="M12.3423 11.8201H12.6107V12.0852H12.3423V11.8201Z" fill="#DD941A"/>
<path d="M12.3423 12.0852H12.6107V12.3504H12.3423V12.0852Z" fill="#DD941A"/>
<path d="M12.3423 12.3504H12.6107V12.6156H12.3423V12.3504Z" fill="#DD941A"/>
<path d="M12.3423 12.6155H12.6107V12.8807H12.3423V12.6155Z" fill="#19110F"/>
<path d="M12.3423 12.8807H12.6107V13.1458H12.3423V12.8807Z" fill="#19110F"/>
<path d="M12.3423 13.1458H12.6107V13.411H12.3423V13.1458Z" fill="#19110F"/>
<path d="M12.3423 13.411H12.6107V13.6762H12.3423V13.411Z" fill="#19110F"/>
<path d="M12.3423 13.6761H12.6107V13.9413H12.3423V13.6761Z" fill="#19110F"/>
<path d="M12.3423 13.9413H12.6107V14.2064H12.3423V13.9413Z" fill="#FFF493"/>
<path d="M12.3423 14.2064H12.6107V14.4716H12.3423V14.2064Z" fill="#E1B544"/>
<path d="M12.3423 14.4716H12.6107V14.7368H12.3423V14.4716Z" fill="#19110F"/>
<path d="M12.3423 14.7368H12.6107V15.0019H12.3423V14.7368Z" fill="#19110F"/>
<path d="M12.3423 15.0019H12.6107V15.267H12.3423V15.0019Z" fill="#19110F"/>
<path d="M12.3423 15.267H12.6107V15.5322H12.3423V15.267Z" fill="#DD941A"/>
<path d="M12.3423 15.5322H12.6107V15.7974H12.3423V15.5322Z" fill="#19110F"/>
<path d="M12.3423 15.7974H12.6107V16.0625H12.3423V15.7974Z" fill="#DD941A"/>
<path d="M12.3423 16.0625H12.6107V16.3277H12.3423V16.0625Z" fill="#DD941A"/>
<path d="M12.3423 16.3276H12.6107V16.5928H12.3423V16.3276Z" fill="#19110F"/>
<path d="M12.6108 11.0246H12.8793V11.2897H12.6108V11.0246Z" fill="#19110F"/>
<path d="M12.6108 11.2898H12.8793V11.5549H12.6108V11.2898Z" fill="#DD941A"/>
<path d="M12.6108 11.5549H12.8793V11.8201H12.6108V11.5549Z" fill="#DD941A"/>
<path d="M12.6108 11.8201H12.8793V12.0852H12.6108V11.8201Z" fill="#DD941A"/>
<path d="M12.6108 12.0852H12.8793V12.3504H12.6108V12.0852Z" fill="#DD941A"/>
<path d="M12.6108 12.3504H12.8793V12.6156H12.6108V12.3504Z" fill="#DD941A"/>
<path d="M12.6108 12.6155H12.8793V12.8807H12.6108V12.6155Z" fill="#DD941A"/>
<path d="M12.6108 12.8807H12.8793V13.1458H12.6108V12.8807Z" fill="#FFF493"/>
<path d="M12.6108 13.1458H12.8793V13.411H12.6108V13.1458Z" fill="#FFF493"/>
<path d="M12.6108 13.411H12.8793V13.6762H12.6108V13.411Z" fill="#FFF493"/>
<path d="M12.6108 13.6761H12.8793V13.9413H12.6108V13.6761Z" fill="#FFF493"/>
<path d="M12.6108 13.9413H12.8793V14.2064H12.6108V13.9413Z" fill="#E1B544"/>
<path d="M12.6108 14.2064H12.8793V14.4716H12.6108V14.2064Z" fill="#19110F"/>
<path d="M12.8793 11.0246H13.1477V11.2897H12.8793V11.0246Z" fill="#19110F"/>
<path d="M12.8792 11.2898H13.1477V11.5549H12.8792V11.2898Z" fill="#DD941A"/>
<path d="M12.8792 11.5549H13.1477V11.8201H12.8792V11.5549Z" fill="#DD941A"/>
<path d="M12.8792 11.8201H13.1477V12.0852H12.8792V11.8201Z" fill="#DD941A"/>
<path d="M12.8793 12.0852H13.1477V12.3504H12.8793V12.0852Z" fill="#DD941A"/>
<path d="M12.8792 12.3504H13.1477V12.6156H12.8792V12.3504Z" fill="#DD941A"/>
<path d="M12.8792 12.6155H13.1477V12.8807H12.8792V12.6155Z" fill="#DD941A"/>
<path d="M12.8792 12.8807H13.1477V13.1458H12.8792V12.8807Z" fill="#FFF493"/>
<path d="M12.8793 13.1458H13.1477V13.411H12.8793V13.1458Z" fill="#FFF493"/>
<path d="M12.8793 13.411H13.1477V13.6762H12.8793V13.411Z" fill="#FFF493"/>
<path d="M12.8792 13.6761H13.1477V13.9413H12.8792V13.6761Z" fill="#FFF493"/>
<path d="M12.8792 13.9413H13.1477V14.2064H12.8792V13.9413Z" fill="#E1B544"/>
<path d="M12.8792 14.2064H13.1477V14.4716H12.8792V14.2064Z" fill="#19110F"/>
<path d="M13.1477 11.0246H13.4161V11.2897H13.1477V11.0246Z" fill="#19110F"/>
<path d="M13.1477 11.2898H13.4161V11.5549H13.1477V11.2898Z" fill="#DD941A"/>
<path d="M13.1477 11.5549H13.4161V11.8201H13.1477V11.5549Z" fill="#DD941A"/>
<path d="M13.1477 11.8201H13.4161V12.0852H13.1477V11.8201Z" fill="#DD941A"/>
<path d="M13.1477 12.0852H13.4161V12.3504H13.1477V12.0852Z" fill="#DD941A"/>
<path d="M13.1477 12.3504H13.4161V12.6156H13.1477V12.3504Z" fill="#DD941A"/>
<path d="M13.1477 12.6155H13.4161V12.8807H13.1477V12.6155Z" fill="#DD941A"/>
<path d="M13.1477 12.8807H13.4161V13.1458H13.1477V12.8807Z" fill="#FFF493"/>
<path d="M13.1477 13.1458H13.4161V13.411H13.1477V13.1458Z" fill="#FFF493"/>
<path d="M13.1477 13.411H13.4161V13.6762H13.1477V13.411Z" fill="#E1B544"/>
<path d="M13.1477 13.6761H13.4161V13.9413H13.1477V13.6761Z" fill="#E1B544"/>
<path d="M13.1477 13.9413H13.4161V14.2064H13.1477V13.9413Z" fill="#E1B544"/>
<path d="M13.1477 14.2064H13.4161V14.4716H13.1477V14.2064Z" fill="#19110F"/>
<path d="M13.4161 11.0246H13.6846V11.2897H13.4161V11.0246Z" fill="#19110F"/>
<path d="M13.4161 11.2898H13.6846V11.5549H13.4161V11.2898Z" fill="#DD941A"/>
<path d="M13.4161 11.5549H13.6846V11.8201H13.4161V11.5549Z" fill="#DD941A"/>
<path d="M13.4161 11.8201H13.6846V12.0852H13.4161V11.8201Z" fill="#DD941A"/>
<path d="M13.4161 12.0852H13.6846V12.3504H13.4161V12.0852Z" fill="#DD941A"/>
<path d="M13.4161 12.3504H13.6846V12.6156H13.4161V12.3504Z" fill="#DD941A"/>
<path d="M13.4161 12.6155H13.6846V12.8807H13.4161V12.6155Z" fill="#DD941A"/>
<path d="M13.4161 12.8807H13.6846V13.1458H13.4161V12.8807Z" fill="#FFF493"/>
<path d="M13.4161 13.1458H13.6846V13.411H13.4161V13.1458Z" fill="#FFF493"/>
<path d="M13.4161 13.411H13.6846V13.6762H13.4161V13.411Z" fill="#E1B544"/>
<path d="M13.4161 13.6761H13.6846V13.9413H13.4161V13.6761Z" fill="#19110F"/>
<path d="M13.4161 13.9413H13.6846V14.2064H13.4161V13.9413Z" fill="#19110F"/>
<path d="M13.4161 14.2064H13.6846V14.4716H13.4161V14.2064Z" fill="#19110F"/>
<path d="M13.6845 11.0246H13.953V11.2897H13.6845V11.0246Z" fill="#19110F"/>
<path d="M13.6845 11.2898H13.953V11.5549H13.6845V11.2898Z" fill="#DD941A"/>
<path d="M13.6845 11.5549H13.953V11.8201H13.6845V11.5549Z" fill="#DD941A"/>
<path d="M13.6845 11.8201H13.953V12.0852H13.6845V11.8201Z" fill="#DD941A"/>
<path d="M13.6845 12.0852H13.953V12.3504H13.6845V12.0852Z" fill="#DD941A"/>
<path d="M13.6845 12.3504H13.953V12.6156H13.6845V12.3504Z" fill="#DD941A"/>
<path d="M13.6845 12.6155H13.953V12.8807H13.6845V12.6155Z" fill="#DD941A"/>
<path d="M13.6845 12.8807H13.953V13.1458H13.6845V12.8807Z" fill="#19110F"/>
<path d="M13.6845 13.1458H13.953V13.411H13.6845V13.1458Z" fill="#FFF493"/>
<path d="M13.6845 13.411H13.953V13.6762H13.6845V13.411Z" fill="#E1B544"/>
<path d="M13.6845 13.6761H13.953V13.9413H13.6845V13.6761Z" fill="#19110F"/>
<path d="M13.9531 10.7595H14.2216V11.0246H13.9531V10.7595Z" fill="#19110F"/>
<path d="M13.9531 11.0246H14.2216V11.2897H13.9531V11.0246Z" fill="#DD941A"/>
<path d="M13.9531 11.2898H14.2216V11.5549H13.9531V11.2898Z" fill="#DD941A"/>
<path d="M13.9531 11.5549H14.2216V11.8201H13.9531V11.5549Z" fill="#DD941A"/>
<path d="M13.9531 11.8201H14.2216V12.0852H13.9531V11.8201Z" fill="#DD941A"/>
<path d="M13.9531 12.0852H14.2216V12.3504H13.9531V12.0852Z" fill="#DD941A"/>
<path d="M13.9531 12.3504H14.2216V12.6156H13.9531V12.3504Z" fill="#DD941A"/>
<path d="M13.9531 12.6155H14.2216V12.8807H13.9531V12.6155Z" fill="#DD941A"/>
<path d="M13.9531 12.8807H14.2216V13.1458H13.9531V12.8807Z" fill="#19110F"/>
<path d="M13.9531 13.1458H14.2216V13.411H13.9531V13.1458Z" fill="#E1B544"/>
<path d="M13.9531 13.411H14.2216V13.6762H13.9531V13.411Z" fill="#E1B544"/>
<path d="M13.9531 13.6761H14.2216V13.9413H13.9531V13.6761Z" fill="#19110F"/>
<path d="M14.2215 10.4943H14.49V10.7595H14.2215V10.4943Z" fill="#19110F"/>
<path d="M14.2215 10.7595H14.49V11.0246H14.2215V10.7595Z" fill="#DD941A"/>
<path d="M14.2215 11.0246H14.49V11.2897H14.2215V11.0246Z" fill="#DD941A"/>
<path d="M14.2215 11.2898H14.49V11.5549H14.2215V11.2898Z" fill="#DD941A"/>
<path d="M14.2215 11.5549H14.49V11.8201H14.2215V11.5549Z" fill="#DD941A"/>
<path d="M14.2215 11.8201H14.49V12.0852H14.2215V11.8201Z" fill="#DD941A"/>
<path d="M14.2215 12.0852H14.49V12.3504H14.2215V12.0852Z" fill="#DD941A"/>
<path d="M14.2215 12.3504H14.49V12.6156H14.2215V12.3504Z" fill="#DD941A"/>
<path d="M14.2215 12.6155H14.49V12.8807H14.2215V12.6155Z" fill="#DD941A"/>
<path d="M14.2215 12.8807H14.49V13.1458H14.2215V12.8807Z" fill="#19110F"/>
<path d="M14.2215 13.1458H14.49V13.411H14.2215V13.1458Z" fill="#19110F"/>
<path d="M14.2215 13.411H14.49V13.6762H14.2215V13.411Z" fill="#19110F"/>
<path d="M14.2215 13.6761H14.49V13.9413H14.2215V13.6761Z" fill="#19110F"/>
<path d="M14.2215 13.9413H14.49V14.2064H14.2215V13.9413Z" fill="#19110F"/>
<path d="M14.2215 14.2064H14.49V14.4716H14.2215V14.2064Z" fill="#19110F"/>
<path d="M14.2215 14.4716H14.49V14.7368H14.2215V14.4716Z" fill="#19110F"/>
<path d="M14.2215 14.7368H14.49V15.0019H14.2215V14.7368Z" fill="#19110F"/>
<path d="M18.5157 9.17596H18.7842V9.44112H18.5157V9.17596Z" fill="#19110F"/>
<path d="M18.5157 9.4411H18.7842V9.70625H18.5157V9.4411Z" fill="black"/>
<path d="M18.5157 9.70624H18.7842V9.97139H18.5157V9.70624Z" fill="#C18217"/>
<path d="M18.5157 9.97137H18.7842V10.2365H18.5157V9.97137Z" fill="#C18217"/>
<path d="M18.5157 10.2366H18.7842V10.5017H18.5157V10.2366Z" fill="#C18217"/>
<path d="M18.5157 10.5017H18.7842V10.7669H18.5157V10.5017Z" fill="#19110F"/>
<path d="M17.707 8.90985H17.9755V9.175H17.707V8.90985Z" fill="#19110F"/>
<path d="M17.707 9.17499H17.9755V9.44014H17.707V9.17499Z" fill="#FCAB23"/>
<path d="M17.707 9.44019H17.9755V9.70534H17.707V9.44019Z" fill="black"/>
<path d="M17.707 9.70532H17.9755V9.97047H17.707V9.70532Z" fill="#DD941A"/>
<path d="M17.707 9.97046H17.9755V10.2356H17.707V9.97046Z" fill="#DD941A"/>
<path d="M17.707 10.2356H17.9755V10.5007H17.707V10.2356Z" fill="#DD941A"/>
<path d="M17.707 10.5008H17.9755V10.7659H17.707V10.5008Z" fill="#C18217"/>
<path d="M17.707 10.7659H17.9755V11.0311H17.707V10.7659Z" fill="#19110F"/>
<path d="M17.4375 8.64355H17.7059V8.90871H17.4375V8.64355Z" fill="#19110F"/>
<path d="M17.4375 8.90869H17.7059V9.17384H17.4375V8.90869Z" fill="#FCAB23"/>
<path d="M17.4375 9.17383H17.7059V9.43898H17.4375V9.17383Z" fill="#DD941A"/>
<path d="M17.4375 9.43903H17.7059V9.70418H17.4375V9.43903Z" fill="#DD941A"/>
<path d="M17.4375 9.70416H17.7059V9.96931H17.4375V9.70416Z" fill="#DD941A"/>
<path d="M17.4375 9.9693H17.7059V10.2345H17.4375V9.9693Z" fill="#DD941A"/>
<path d="M17.4375 10.2344H17.7059V10.4996H17.4375V10.2344Z" fill="#DD941A"/>
<path d="M17.4375 10.4996H17.7059V10.7647H17.4375V10.4996Z" fill="#C18217"/>
<path d="M17.4375 10.7648H17.7059V11.0299H17.4375V10.7648Z" fill="#19110F"/>
<path d="M17.9767 8.90985H18.2451V9.175H17.9767V8.90985Z" fill="#19110F"/>
<path d="M17.9767 9.17499H18.2451V9.44014H17.9767V9.17499Z" fill="#FCAB23"/>
<path d="M17.9767 9.44019H18.2451V9.70534H17.9767V9.44019Z" fill="black"/>
<path d="M17.9767 9.70532H18.2451V9.97047H17.9767V9.70532Z" fill="black"/>
<path d="M17.9767 9.97046H18.2451V10.2356H17.9767V9.97046Z" fill="#DD941A"/>
<path d="M17.9767 10.2356H18.2451V10.5007H17.9767V10.2356Z" fill="#DD941A"/>
<path d="M17.9767 10.5008H18.2451V10.7659H17.9767V10.5008Z" fill="#C18217"/>
<path d="M17.9767 10.7659H18.2451V11.0311H17.9767V10.7659Z" fill="#19110F"/>
<path d="M17.1681 8.64355H17.4365V8.90871H17.1681V8.64355Z" fill="#19110F"/>
<path d="M17.1681 8.90869H17.4365V9.17384H17.1681V8.90869Z" fill="#FCAB23"/>
<path d="M17.1681 9.17383H17.4365V9.43898H17.1681V9.17383Z" fill="#DD941A"/>
<path d="M17.1681 9.43903H17.4365V9.70418H17.1681V9.43903Z" fill="#DD941A"/>
<path d="M17.1681 9.70416H17.4365V9.96931H17.1681V9.70416Z" fill="#DD941A"/>
<path d="M17.1681 9.9693H17.4365V10.2345H17.1681V9.9693Z" fill="#DD941A"/>
<path d="M17.1681 10.2344H17.4365V10.4996H17.1681V10.2344Z" fill="#DD941A"/>
<path d="M17.1681 10.4996H17.4365V10.7647H17.1681V10.4996Z" fill="#C18217"/>
<path d="M17.1681 10.7648H17.4365V11.0299H17.1681V10.7648Z" fill="#C18217"/>
<path d="M17.1681 11.0299H17.4365V11.2951H17.1681V11.0299Z" fill="#19110F"/>
<path d="M16.8984 8.64355H17.1669V8.90871H16.8984V8.64355Z" fill="#19110F"/>
<path d="M16.8984 8.90869H17.1669V9.17384H16.8984V8.90869Z" fill="#FCAB23"/>
<path d="M16.8984 9.17383H17.1669V9.43898H16.8984V9.17383Z" fill="#DD941A"/>
<path d="M16.8984 9.43903H17.1669V9.70418H16.8984V9.43903Z" fill="#FCAB23"/>
<path d="M16.8984 9.70416H17.1669V9.96931H16.8984V9.70416Z" fill="#DD941A"/>
<path d="M16.8984 9.9693H17.1669V10.2345H16.8984V9.9693Z" fill="#DD941A"/>
<path d="M16.8984 10.2344H17.1669V10.4996H16.8984V10.2344Z" fill="#DD941A"/>
<path d="M16.8984 10.4996H17.1669V10.7647H16.8984V10.4996Z" fill="#19110F"/>
<path d="M16.8984 10.7648H17.1669V11.0299H16.8984V10.7648Z" fill="#C18217"/>
<path d="M16.8984 11.0299H17.1669V11.2951H16.8984V11.0299Z" fill="#19110F"/>
<path d="M16.6288 8.37744H16.8972V8.64259H16.6288V8.37744Z" fill="#19110F"/>
<path d="M16.6289 8.64258H16.8973V8.90773H16.6289V8.64258Z" fill="#FCAB23"/>
<path d="M16.6288 8.90778H16.8972V9.17293H16.6288V8.90778Z" fill="#19110F"/>
<path d="M16.6288 9.17291H16.8972V9.43806H16.6288V9.17291Z" fill="#19110F"/>
<path d="M16.6288 9.43805H16.8972V9.7032H16.6288V9.43805Z" fill="#FCAB23"/>
<path d="M16.6289 9.70319H16.8973V9.96834H16.6289V9.70319Z" fill="#DD941A"/>
<path d="M16.6289 9.96838H16.8973V10.2335H16.6289V9.96838Z" fill="#DD941A"/>
<path d="M16.6288 10.2335H16.8972V10.4987H16.6288V10.2335Z" fill="#DD941A"/>
<path d="M16.6288 10.4987H16.8972V10.7638H16.6288V10.4987Z" fill="#19110F"/>
<path d="M16.6288 10.7638H16.8972V11.0289H16.6288V10.7638Z" fill="#C18217"/>
<path d="M16.6289 11.029H16.8973V11.2941H16.6289V11.029Z" fill="#19110F"/>
<path d="M18.2461 8.90985H18.5145V9.175H18.2461V8.90985Z" fill="#19110F"/>
<path d="M18.2461 9.17499H18.5145V9.44014H18.2461V9.17499Z" fill="#FCAB23"/>
<path d="M18.2461 9.44019H18.5145V9.70534H18.2461V9.44019Z" fill="black"/>
<path d="M18.2461 9.70532H18.5145V9.97047H18.2461V9.70532Z" fill="black"/>
<path d="M18.2461 9.97046H18.5145V10.2356H18.2461V9.97046Z" fill="#DD941A"/>
<path d="M18.2461 10.2356H18.5145V10.5007H18.2461V10.2356Z" fill="#C18217"/>
<path d="M18.2461 10.5008H18.5145V10.7659H18.2461V10.5008Z" fill="#19110F"/>
<path d="M18.7853 9.43372H19.0537V9.69887H18.7853V9.43372Z" fill="#19110F"/>
<path d="M18.7853 9.69885H19.0537V9.964H18.7853V9.69885Z" fill="#19110F"/>
<path d="M18.7853 9.96405H19.0537V10.2292H18.7853V9.96405Z" fill="#19110F"/>
<path d="M18.7853 10.2292H19.0537V10.4943H18.7853V10.2292Z" fill="#19110F"/>
<path d="M14.49 9.96405H14.7584V10.2292H14.49V9.96405Z" fill="#19110F"/>
<path d="M14.49 10.2292H14.7584V10.4943H14.49V10.2292Z" fill="#19110F"/>
<path d="M14.49 10.4943H14.7584V10.7595H14.49V10.4943Z" fill="#DD941A"/>
<path d="M14.49 10.7595H14.7584V11.0246H14.49V10.7595Z" fill="#DD941A"/>
<path d="M14.49 11.0246H14.7584V11.2897H14.49V11.0246Z" fill="#DD941A"/>
<path d="M14.49 11.2898H14.7584V11.5549H14.49V11.2898Z" fill="#DD941A"/>
<path d="M14.49 11.5549H14.7584V11.8201H14.49V11.5549Z" fill="#DD941A"/>
<path d="M14.49 11.8201H14.7584V12.0852H14.49V11.8201Z" fill="#DD941A"/>
<path d="M14.49 12.0852H14.7584V12.3504H14.49V12.0852Z" fill="#DD941A"/>
<path d="M14.49 12.3504H14.7584V12.6156H14.49V12.3504Z" fill="#DD941A"/>
<path d="M14.49 12.6155H14.7584V12.8807H14.49V12.6155Z" fill="#DD941A"/>
<path d="M14.49 12.8807H14.7584V13.1458H14.49V12.8807Z" fill="#DD941A"/>
<path d="M14.49 13.1458H14.7584V13.411H14.49V13.1458Z" fill="#DD941A"/>
<path d="M14.49 13.411H14.7584V13.6762H14.49V13.411Z" fill="#DD941A"/>
<path d="M14.49 13.6761H14.7584V13.9413H14.49V13.6761Z" fill="#DD941A"/>
<path d="M14.49 13.9413H14.7584V14.2064H14.49V13.9413Z" fill="#DD941A"/>
<path d="M14.49 14.2064H14.7584V14.4716H14.49V14.2064Z" fill="#19110F"/>
<path d="M14.49 14.4716H14.7584V14.7368H14.49V14.4716Z" fill="#DD941A"/>
<path d="M14.49 14.7368H14.7584V15.0019H14.49V14.7368Z" fill="#19110F"/>
<path d="M15.5508 8.37744H15.8192V8.64259H15.5508V8.37744Z" fill="#19110F"/>
<path d="M15.5508 8.64258H15.8192V8.90773H15.5508V8.64258Z" fill="#DD941A"/>
<path d="M15.5508 8.90778H15.8192V9.17293H15.5508V8.90778Z" fill="#DD941A"/>
<path d="M15.5508 9.17291H15.8192V9.43806H15.5508V9.17291Z" fill="#DD941A"/>
<path d="M15.5508 9.43805H15.8192V9.7032H15.5508V9.43805Z" fill="#FCAB23"/>
<path d="M15.5508 9.70319H15.8192V9.96834H15.5508V9.70319Z" fill="#DD941A"/>
<path d="M15.5508 9.96838H15.8192V10.2335H15.5508V9.96838Z" fill="#DD941A"/>
<path d="M15.5508 10.2335H15.8192V10.4987H15.5508V10.2335Z" fill="#DD941A"/>
<path d="M15.5508 10.4987H15.8192V10.7638H15.5508V10.4987Z" fill="#DD941A"/>
<path d="M15.5508 10.7638H15.8192V11.0289H15.5508V10.7638Z" fill="#C18217"/>
<path d="M15.5508 11.029H15.8192V11.2941H15.5508V11.029Z" fill="#19110F"/>
<path d="M16.6375 7.82507H16.906V8.07159H16.6375V7.82507Z" fill="#19110F"/>
<path d="M15.8202 7.84491H16.0886V8.11006H15.8202V7.84491Z" fill="#19110F"/>
<path d="M15.8202 8.11005H16.0886V8.3752H15.8202V8.11005Z" fill="#19110F"/>
<path d="M15.8202 8.37518H16.0886V8.64033H15.8202V8.37518Z" fill="#19110F"/>
<path d="M15.8202 8.64038H16.0886V8.90553H15.8202V8.64038Z" fill="#DD941A"/>
<path d="M15.8202 8.90552H16.0886V9.17067H15.8202V8.90552Z" fill="#19110F"/>
<path d="M15.8202 9.17065H16.0886V9.43581H15.8202V9.17065Z" fill="#19110F"/>
<path d="M15.8202 9.43579H16.0886V9.70094H15.8202V9.43579Z" fill="#FCAB23"/>
<path d="M15.8202 9.70099H16.0886V9.96614H15.8202V9.70099Z" fill="#DD941A"/>
<path d="M15.8202 9.96613H16.0886V10.2313H15.8202V9.96613Z" fill="#DD941A"/>
<path d="M15.8202 10.2313H16.0886V10.4964H15.8202V10.2313Z" fill="#DD941A"/>
<path d="M15.8202 10.4965H16.0886V10.7616H15.8202V10.4965Z" fill="#DD941A"/>
<path d="M15.8202 10.7616H16.0886V11.0267H15.8202V10.7616Z" fill="#C18217"/>
<path d="M15.8202 11.0267H16.0886V11.2919H15.8202V11.0267Z" fill="#19110F"/>
<path d="M15.2812 7.84491H15.5497V8.11006H15.2812V7.84491Z" fill="#19110F"/>
<path d="M15.2812 8.11005H15.5497V8.3752H15.2812V8.11005Z" fill="#19110F"/>
<path d="M15.2812 8.37518H15.5497V8.64033H15.2812V8.37518Z" fill="#19110F"/>
<path d="M15.2812 8.64038H15.5497V8.90553H15.2812V8.64038Z" fill="#DD941A"/>
<path d="M15.2812 8.90552H15.5497V9.17067H15.2812V8.90552Z" fill="#DD941A"/>
<path d="M15.2812 9.17065H15.5497V9.43581H15.2812V9.17065Z" fill="#DD941A"/>
<path d="M15.2812 9.43579H15.5497V9.70094H15.2812V9.43579Z" fill="#DD941A"/>
<path d="M15.2812 9.70099H15.5497V9.96614H15.2812V9.70099Z" fill="#DD941A"/>
<path d="M15.2812 9.96613H15.5497V10.2313H15.2812V9.96613Z" fill="#DD941A"/>
<path d="M15.2812 10.2313H15.5497V10.4964H15.2812V10.2313Z" fill="#DD941A"/>
<path d="M15.2812 10.4965H15.5497V10.7616H15.2812V10.4965Z" fill="#DD941A"/>
<path d="M15.2812 10.7616H15.5497V11.0267H15.2812V10.7616Z" fill="#19110F"/>
<path d="M15.2812 11.0267H15.5497V11.2919H15.2812V11.0267Z" fill="#19110F"/>
<path d="M15.2812 11.2919H15.5497V11.557H15.2812V11.2919Z" fill="#19110F"/>
<path d="M15.2812 11.5571H15.5497V11.8222H15.2812V11.5571Z" fill="#19110F"/>
<path d="M14.49 7.57764H14.7584V7.84279H14.49V7.57764Z" fill="#19110F"/>
<path d="M16.3594 7.3125H16.6278V7.57765H16.3594V7.3125Z" fill="#19110F"/>
<path d="M16.3594 7.57764H16.6278V7.84279H16.3594V7.57764Z" fill="#FCAB23"/>
<path d="M16.3594 7.84283H16.6278V8.10799H16.3594V7.84283Z" fill="#FCAB23"/>
<path d="M16.3594 8.10797H16.6278V8.37312H16.3594V8.10797Z" fill="#19110F"/>
<path d="M16.3594 8.37311H16.6278V8.63826H16.3594V8.37311Z" fill="#19110F"/>
<path d="M16.3594 8.63824H16.6278V8.9034H16.3594V8.63824Z" fill="#DD941A"/>
<path d="M16.3594 8.90344H16.6278V9.16859H16.3594V8.90344Z" fill="#DD941A"/>
<path d="M16.3594 9.16858H16.6278V9.43373H16.3594V9.16858Z" fill="#DD941A"/>
<path d="M16.3594 9.43372H16.6278V9.69887H16.3594V9.43372Z" fill="#DD941A"/>
<path d="M16.3594 9.69885H16.6278V9.964H16.3594V9.69885Z" fill="#DD941A"/>
<path d="M16.3594 9.96405H16.6278V10.2292H16.3594V9.96405Z" fill="#DD941A"/>
<path d="M16.3594 10.2292H16.6278V10.4943H16.3594V10.2292Z" fill="#DD941A"/>
<path d="M16.3594 10.4943H16.6278V10.7595H16.3594V10.4943Z" fill="#19110F"/>
<path d="M16.3594 10.7595H16.6278V11.0246H16.3594V10.7595Z" fill="#C18217"/>
<path d="M16.3594 11.0246H16.6278V11.2897H16.3594V11.0246Z" fill="#19110F"/>
<path d="M16.0898 7.57874H16.3583V7.84389H16.0898V7.57874Z" fill="#19110F"/>
<path d="M16.0898 7.84393H16.3583V8.10909H16.0898V7.84393Z" fill="#DD941A"/>
<path d="M16.0898 8.10907H16.3583V8.37422H16.0898V8.10907Z" fill="#DD941A"/>
<path d="M16.0898 8.37421H16.3583V8.63936H16.0898V8.37421Z" fill="#DD941A"/>
<path d="M16.0898 8.63934H16.3583V8.9045H16.0898V8.63934Z" fill="#DD941A"/>
<path d="M16.0898 8.90454H16.3583V9.16969H16.0898V8.90454Z" fill="#DD941A"/>
<path d="M16.0898 9.16968H16.3583V9.43483H16.0898V9.16968Z" fill="#DD941A"/>
<path d="M16.0898 9.43481H16.3583V9.69997H16.0898V9.43481Z" fill="#DD941A"/>
<path d="M16.0898 9.69995H16.3583V9.9651H16.0898V9.69995Z" fill="#DD941A"/>
<path d="M16.0898 9.96509H16.3583V10.2302H16.0898V9.96509Z" fill="#DD941A"/>
<path d="M16.0898 10.2303H16.3583V10.4954H16.0898V10.2303Z" fill="#19110F"/>
<path d="M16.0898 10.4954H16.3583V10.7606H16.0898V10.4954Z" fill="#DD941A"/>
<path d="M16.0898 10.7606H16.3583V11.0257H16.0898V10.7606Z" fill="#C18217"/>
<path d="M16.0898 11.0257H16.3583V11.2908H16.0898V11.0257Z" fill="#19110F"/>
<path d="M16.6375 7.57764H16.906V7.82415H16.6375V7.57764Z" fill="#19110F"/>
<path d="M14.7422 7.3125H15.0106V7.57765H14.7422V7.3125Z" fill="#19110F"/>
<path d="M14.7422 7.57764H15.0106V7.84279H14.7422V7.57764Z" fill="#FCAB23"/>
<path d="M14.7422 7.84283H15.0106V8.10799H14.7422V7.84283Z" fill="#DD941A"/>
<path d="M14.7422 8.10797H15.0106V8.37312H14.7422V8.10797Z" fill="#DD941A"/>
<path d="M14.7422 8.37311H15.0106V8.63826H14.7422V8.37311Z" fill="#19110F"/>
<path d="M14.7422 8.63824H15.0106V8.9034H14.7422V8.63824Z" fill="#19110F"/>
<path d="M14.7422 8.90344H15.0106V9.16859H14.7422V8.90344Z" fill="#19110F"/>
<path d="M14.7422 9.16858H15.0106V9.43373H14.7422V9.16858Z" fill="#19110F"/>
<path d="M14.7422 9.43372H15.0106V9.69887H14.7422V9.43372Z" fill="#19110F"/>
<path d="M14.7422 9.69885H15.0106V9.964H14.7422V9.69885Z" fill="#19110F"/>
<path d="M14.7422 9.96405H15.0106V10.2292H14.7422V9.96405Z" fill="#DD941A"/>
<path d="M14.7422 10.2292H15.0106V10.4943H14.7422V10.2292Z" fill="#DD941A"/>
<path d="M14.7422 10.4943H15.0106V10.7595H14.7422V10.4943Z" fill="#DD941A"/>
<path d="M14.7422 10.7595H15.0106V11.0246H14.7422V10.7595Z" fill="#DD941A"/>
<path d="M14.7422 11.0246H15.0106V11.2897H14.7422V11.0246Z" fill="#DD941A"/>
<path d="M14.7422 11.2898H15.0106V11.5549H14.7422V11.2898Z" fill="#DD941A"/>
<path d="M14.7422 11.5549H15.0106V11.8201H14.7422V11.5549Z" fill="#FFF493"/>
<path d="M14.7422 11.8201H15.0106V12.0852H14.7422V11.8201Z" fill="#FFF493"/>
<path d="M14.7422 12.0852H15.0106V12.3504H14.7422V12.0852Z" fill="#FFF493"/>
<path d="M14.7422 12.3504H15.0106V12.6156H14.7422V12.3504Z" fill="#19110F"/>
<path d="M14.7422 12.6155H15.0106V12.8807H14.7422V12.6155Z" fill="#19110F"/>
<path d="M14.7422 12.8807H15.0106V13.1458H14.7422V12.8807Z" fill="#19110F"/>
<path d="M14.7422 13.1458H15.0106V13.411H14.7422V13.1458Z" fill="#19110F"/>
<path d="M14.7422 13.411H15.0106V13.6762H14.7422V13.411Z" fill="#19110F"/>
<path d="M14.7422 13.6761H15.0106V13.9413H14.7422V13.6761Z" fill="#DD941A"/>
<path d="M14.7422 13.9413H15.0106V14.2064H14.7422V13.9413Z" fill="#DD941A"/>
<path d="M14.7422 14.2064H15.0106V14.4716H14.7422V14.2064Z" fill="#19110F"/>
<path d="M14.7422 14.4716H15.0106V14.7368H14.7422V14.4716Z" fill="#DD941A"/>
<path d="M14.7422 14.7368H15.0106V15.0019H14.7422V14.7368Z" fill="#19110F"/>
<path d="M15.0118 7.57874H15.2803V7.84389H15.0118V7.57874Z" fill="#19110F"/>
<path d="M15.0118 7.84393H15.2803V8.10909H15.0118V7.84393Z" fill="#FCAB23"/>
<path d="M15.0118 8.10907H15.2803V8.37422H15.0118V8.10907Z" fill="#DD941A"/>
<path d="M15.0118 8.37421H15.2803V8.63936H15.0118V8.37421Z" fill="#DD941A"/>
<path d="M15.0118 8.63934H15.2803V8.9045H15.0118V8.63934Z" fill="#DD941A"/>
<path d="M15.0118 8.90454H15.2803V9.16969H15.0118V8.90454Z" fill="#DD941A"/>
<path d="M15.0118 9.16968H15.2803V9.43483H15.0118V9.16968Z" fill="#DD941A"/>
<path d="M15.0118 9.43481H15.2803V9.69997H15.0118V9.43481Z" fill="#DD941A"/>
<path d="M15.0118 9.69995H15.2803V9.9651H15.0118V9.69995Z" fill="#DD941A"/>
<path d="M15.0118 9.96509H15.2803V10.2302H15.0118V9.96509Z" fill="#DD941A"/>
<path d="M15.0118 10.2303H15.2803V10.4954H15.0118V10.2303Z" fill="#DD941A"/>
<path d="M15.0118 10.4954H15.2803V10.7606H15.0118V10.4954Z" fill="#DD941A"/>
<path d="M15.0118 10.7606H15.2803V11.0257H15.0118V10.7606Z" fill="#DD941A"/>
<path d="M15.0118 11.0257H15.2803V11.2908H15.0118V11.0257Z" fill="#FFF493"/>
<path d="M15.0118 11.2909H15.2803V11.556H15.0118V11.2909Z" fill="#FFF493"/>
<path d="M15.0118 11.556H15.2803V11.8212H15.0118V11.556Z" fill="#FFF493"/>
<path d="M15.0118 11.8212H15.2803V12.0863H15.0118V11.8212Z" fill="#19110F"/>
<path d="M15.0118 12.0863H15.2803V12.3515H15.0118V12.0863Z" fill="#19110F"/>
<path d="M14.49 8.10797H14.7584V8.37312H14.49V8.10797Z" fill="#19110F"/>
</svg>
