<svg width="16" height="16" viewBox="0 0 16 16" fill="none" xmlns="http://www.w3.org/2000/svg">
<rect width="16" height="16" rx="2" fill="#8F9BB3" fill-opacity="0.24"/>
<path d="M3.60007 2.25431L7.99953 6.65376L12.399 2.26764C12.4856 2.1795 12.5896 2.1103 12.7043 2.0644C12.819 2.01851 12.9421 1.99692 13.0656 2.00101C13.3079 2.01669 13.5363 2.12005 13.708 2.29178C13.8797 2.46351 13.9831 2.69187 13.9988 2.93422C14 3.05338 13.977 3.17155 13.9311 3.28155C13.8853 3.39155 13.8176 3.49109 13.7321 3.57414L9.31936 8.00026L13.7321 12.4264C13.9055 12.5944 14.0014 12.8263 13.9988 13.0663C13.9831 13.3087 13.8797 13.537 13.708 13.7087C13.5363 13.8805 13.3079 13.9838 13.0656 13.9995C12.9421 14.0036 12.819 13.982 12.7043 13.9361C12.5896 13.8902 12.4856 13.821 12.399 13.7329L7.99953 9.34676L3.61341 13.7329C3.52679 13.821 3.42282 13.8902 3.30808 13.9361C3.19334 13.982 3.07033 14.0036 2.94682 13.9995C2.69995 13.9867 2.46658 13.8828 2.29178 13.708C2.11697 13.5332 2.01312 13.2998 2.00027 13.053C1.99907 12.9338 2.02208 12.8156 2.06791 12.7056C2.11375 12.5956 2.18145 12.4961 2.26691 12.413L6.67969 8.00026L2.25357 3.57414C2.17052 3.48997 2.10528 3.38992 2.06176 3.27998C2.01824 3.17003 1.99733 3.05244 2.00027 2.93422C2.01596 2.69187 2.11931 2.46351 2.29104 2.29178C2.46277 2.12005 2.69113 2.01669 2.93349 2.00101C3.05604 1.99519 3.17847 2.01467 3.29316 2.05825C3.40784 2.10183 3.51232 2.16857 3.60007 2.25431Z" fill="#8F9BB3"/>
</svg>
