<svg width="32" height="32" viewBox="0 0 32 32" fill="none" xmlns="http://www.w3.org/2000/svg">
<path d="M21.7956 27.9056C20.2635 28.5089 18.6076 28.8106 16.8281 28.8106C14.9618 28.8106 13.2409 28.4894 11.6654 27.847C10.0898 27.2046 8.72049 26.3019 7.55729 25.1387C6.3941 23.9755 5.49349 22.6083 4.85547 21.0371C4.21745 19.4659 3.89844 17.7385 3.89844 15.8548C3.89844 14.1361 4.2283 12.4868 4.88802 10.9069C5.54774 9.32704 6.46571 7.93598 7.64193 6.73372C8.81814 5.53147 10.1701 4.61784 11.6979 3.99284C11.8889 3.92339 12.0495 3.87565 12.1797 3.84961C12.3099 3.82357 12.401 3.81055 12.4531 3.81055C12.7483 3.81055 12.9892 3.91471 13.1758 4.12305C13.3624 4.33138 13.4557 4.55273 13.4557 4.78711C13.4557 4.926 13.4405 5.05838 13.4102 5.18424C13.3798 5.31011 13.3125 5.46853 13.2083 5.65951C12.9826 6.10221 12.8003 6.70551 12.6615 7.4694C12.5226 8.23329 12.4531 9.07096 12.4531 9.98242C12.4531 12.1265 12.8893 13.9776 13.7617 15.5358C14.6341 17.094 15.8754 18.2941 17.4857 19.1361C19.0959 19.9781 21.0078 20.3991 23.2214 20.3991C23.6988 20.3991 24.174 20.373 24.6471 20.321C25.1202 20.2689 25.5694 20.1929 25.9948 20.0931C26.4201 19.9933 26.7934 19.8826 27.1146 19.7611C27.2795 19.6829 27.4162 19.6352 27.5247 19.6178C27.6332 19.6005 27.7483 19.5918 27.8698 19.5918C28.0868 19.5918 28.2908 19.6764 28.4818 19.8457C28.6727 20.015 28.7682 20.2472 28.7682 20.5423C28.7682 20.6204 28.7552 20.729 28.7292 20.8678C28.7031 21.0067 28.651 21.1673 28.5729 21.3496C27.8958 22.8861 26.98 24.212 25.8255 25.3275C24.671 26.4429 23.3277 27.3023 21.7956 27.9056Z" fill="#8F9BB3"/>
</svg>
