<svg width="24" height="24" viewBox="0 0 24 24" fill="none" xmlns="http://www.w3.org/2000/svg">
<path fill-rule="evenodd" clip-rule="evenodd" d="M12 24C18.6274 24 24 18.6274 24 12C24 5.37258 18.6274 0 12 0C5.37258 0 0 5.37258 0 12C0 18.6274 5.37258 24 12 24ZM16.5305 17.5525C16.2175 17.8508 15.75 18 15.1281 18H8.87189C8.25415 18 7.78773 17.8508 7.47264 17.5525C7.15755 17.2542 7 16.8086 7 16.2159V7.78999C7 7.19725 7.15755 6.75074 7.47264 6.45044C7.78773 6.15015 8.25415 6 8.87189 6H11.5647V10.1511C11.5647 10.8459 11.9337 11.1933 12.6716 11.1933H17V16.2159C17 16.8086 16.8435 17.2542 16.5305 17.5525ZM16.7761 10.0422C16.8632 10.1619 16.915 10.2846 16.9316 10.4102H12.7276C12.5079 10.4102 12.398 10.3062 12.398 10.0981V6.05888C12.5265 6.07458 12.6561 6.12561 12.7867 6.21197C12.9173 6.29833 13.0531 6.41021 13.194 6.5476L16.4216 9.65064C16.5709 9.79195 16.6891 9.92247 16.7761 10.0422ZM9.70522 13.6428H14.3134C14.4295 13.6428 14.5269 13.6055 14.6057 13.5309C14.6845 13.4563 14.7239 13.366 14.7239 13.2601C14.7239 13.1541 14.6845 13.0648 14.6057 12.9921C14.5269 12.9195 14.4295 12.8832 14.3134 12.8832H9.70522C9.58499 12.8832 9.48549 12.9195 9.40672 12.9921C9.32794 13.0648 9.28856 13.1541 9.28856 13.2601C9.28856 13.366 9.32794 13.4563 9.40672 13.5309C9.48549 13.6055 9.58499 13.6428 9.70522 13.6428ZM9.70522 15.739H14.3134C14.4295 15.739 14.5269 15.7026 14.6057 15.63C14.6845 15.5574 14.7239 15.4681 14.7239 15.3621C14.7239 15.2522 14.6845 15.1609 14.6057 15.0883C14.5269 15.0157 14.4295 14.9794 14.3134 14.9794H9.70522C9.58499 14.9794 9.48549 15.0157 9.40672 15.0883C9.32794 15.1609 9.28856 15.2522 9.28856 15.3621C9.28856 15.4681 9.32794 15.5574 9.40672 15.63C9.48549 15.7026 9.58499 15.739 9.70522 15.739Z" fill="#8F9BB3"/>
</svg>
