<svg width="24" height="24" viewBox="0 0 24 24" fill="none" xmlns="http://www.w3.org/2000/svg">
<path d="M23.3842 1.46439C22.292 0.576835 19.6709 0.798754 16.0668 3.5723C10.9338 7.45535 8.64028 12.5587 5.36388 17.5512C4.81782 18.3278 5.69154 18.7716 6.34682 18.4387L8.42187 17.2184C8.74953 17.1074 8.85872 17.1074 8.74953 16.5527C8.53109 14.8886 9.1864 13.3354 10.1693 12.004C13.7734 13.5573 18.1419 12.6697 19.6709 8.23195C21.6368 7.78816 23.4935 5.5693 23.8211 4.01612C24.1487 2.90667 24.0395 1.9082 23.3842 1.46441L23.3842 1.46439ZM1.43218 17.5512C4.38095 22.7656 10.8246 24.5406 15.9576 21.5452C19.3432 19.5482 21.1999 15.998 21.3091 12.3369C21.3091 11.1165 19.8893 11.2274 19.8893 12.3369C19.8893 15.5543 18.2511 18.5497 15.3023 20.3248C10.8246 22.8765 5.14545 21.3233 2.63352 16.8856C0.0123803 12.3369 1.54137 6.56785 6.01914 4.01614C8.42185 2.57388 11.3706 2.35199 13.7733 3.35051C14.7563 3.68335 15.1931 2.35201 14.2102 2.01917C11.3706 1.02067 8.20344 1.13162 5.36386 2.79577C0.230791 5.79124 -1.51661 12.4479 1.43213 17.5512L1.43218 17.5512Z" fill="#2E3A59"/>
</svg>
