<svg width="25" height="24" viewBox="0 0 25 24" fill="none" xmlns="http://www.w3.org/2000/svg">
<path fill-rule="evenodd" clip-rule="evenodd" d="M10.2317 20.5366H5.20732C5.06098 20.5366 4.96341 20.439 4.96341 20.2927V3.70732C4.96341 3.56098 5.06098 3.46341 5.20732 3.46341H18.378C18.5244 3.46341 18.622 3.56098 18.622 3.70732V8.73171C18.622 9.12195 18.9634 9.46342 19.3537 9.46342C19.7439 9.46342 20.0854 9.12195 20.0854 8.73171V3.70732C20.0854 2.78049 19.3049 2 18.378 2H5.20732C4.28049 2 3.5 2.78049 3.5 3.70732V20.2927C3.5 21.2195 4.28049 22 5.20732 22H10.2317C10.622 22 10.9634 21.6585 10.9634 21.2683C10.9634 20.878 10.622 20.5366 10.2317 20.5366ZM16.9146 10.7805C13.8414 10.7805 11.3049 13.3171 11.3049 16.3902C11.3049 19.4634 13.8414 22 16.9146 22C19.9878 22 22.5244 19.4634 22.5244 16.3902C22.5244 13.3171 19.9878 10.7805 16.9146 10.7805ZM16.9146 20.5366C14.6219 20.5366 12.7683 18.6829 12.7683 16.3902C12.7683 14.0976 14.6219 12.2439 16.9146 12.2439C19.2073 12.2439 21.061 14.0976 21.061 16.3902C21.061 18.6829 19.2073 20.5366 16.9146 20.5366ZM17.6463 16L19.1585 16.6829C19.5488 16.878 19.6951 17.2683 19.5488 17.6585C19.4024 17.9512 19.1585 18.0976 18.8658 18.0976C18.7683 18.0976 18.6707 18.0976 18.5732 18.0488L16.6219 17.1707C16.378 17.0244 16.1829 16.7805 16.1829 16.4878V13.9512C16.1829 13.561 16.5244 13.2195 16.9146 13.2195C17.3049 13.2195 17.6463 13.561 17.6463 13.9512V16ZM15.939 6.39024C16.3292 6.39024 16.6707 6.73171 16.6707 7.12195C16.6707 7.5122 16.3292 7.85366 15.939 7.85366H7.64632C7.25608 7.85366 6.91462 7.5122 6.91462 7.12195C6.91462 6.73171 7.25608 6.39024 7.64632 6.39024H15.939ZM6.91462 11.0244C6.91462 10.6341 7.25608 10.2927 7.64632 10.2927H10.0853C10.4756 10.2927 10.8171 10.6341 10.8171 11.0244C10.8171 11.4146 10.4756 11.7561 10.0853 11.7561H7.64632C7.25608 11.7561 6.91462 11.4146 6.91462 11.0244Z" fill="white"/>
</svg>
