<svg width="20" height="20" viewBox="0 0 20 20" fill="none" xmlns="http://www.w3.org/2000/svg">
<path fill-rule="evenodd" clip-rule="evenodd" d="M3.82143 10.2083C3.82143 6.68094 6.68094 3.82143 10.2083 3.82143C13.7357 3.82143 16.5952 6.68094 16.5952 10.2083C16.5952 13.7357 13.7357 16.5952 10.2083 16.5952C6.68094 16.5952 3.82143 13.7357 3.82143 10.2083ZM10.2083 2.5C5.95114 2.5 2.5 5.95114 2.5 10.2083C2.5 14.4655 5.95114 17.9167 10.2083 17.9167C14.4655 17.9167 17.9167 14.4655 17.9167 10.2083C17.9167 5.95114 14.4655 2.5 10.2083 2.5ZM9.85594 6.02383C9.49103 6.02383 9.19522 6.31964 9.19522 6.68454C9.19522 7.04944 9.49103 7.34525 9.85594 7.34525H10.2083C10.5732 7.34525 10.869 7.04944 10.869 6.68454C10.869 6.31964 10.5732 6.02383 10.2083 6.02383H9.85594ZM8.1381 9.50358C8.1381 9.13868 8.43391 8.84287 8.79881 8.84287H10.2083C10.5732 8.84287 10.869 9.13868 10.869 9.50358V12.3667H11.6179C11.9828 12.3667 12.2786 12.6625 12.2786 13.0274C12.2786 13.3923 11.9828 13.6881 11.6179 13.6881H10.2137C10.2119 13.6881 10.2101 13.6881 10.2083 13.6881C10.2066 13.6881 10.2048 13.6881 10.203 13.6881H8.79881C8.43391 13.6881 8.1381 13.3923 8.1381 13.0274C8.1381 12.6625 8.43391 12.3667 8.79881 12.3667H9.54762V10.1643H8.79881C8.43391 10.1643 8.1381 9.86849 8.1381 9.50358Z" fill="#8F9BB3"/>
</svg>
