<svg width="24" height="24" viewBox="0 0 24 24" fill="none" xmlns="http://www.w3.org/2000/svg">
<path fill-rule="evenodd" clip-rule="evenodd" d="M9.73171 20.5366H4.70732C4.56098 20.5366 4.46341 20.439 4.46341 20.2927V3.70732C4.46341 3.56098 4.56098 3.46341 4.70732 3.46341H17.878C18.0244 3.46341 18.122 3.56098 18.122 3.70732V8.73171C18.122 9.12195 18.4634 9.46342 18.8537 9.46342C19.2439 9.46342 19.5854 9.12195 19.5854 8.73171V3.70732C19.5854 2.78049 18.8049 2 17.878 2H4.70732C3.78049 2 3 2.78049 3 3.70732V20.2927C3 21.2195 3.78049 22 4.70732 22H9.73171C10.122 22 10.4634 21.6585 10.4634 21.2683C10.4634 20.878 10.122 20.5366 9.73171 20.5366ZM16.4146 10.7805C13.3414 10.7805 10.8049 13.3171 10.8049 16.3902C10.8049 19.4634 13.3414 22 16.4146 22C19.4878 22 22.0244 19.4634 22.0244 16.3902C22.0244 13.3171 19.4878 10.7805 16.4146 10.7805ZM16.4146 20.5366C14.1219 20.5366 12.2683 18.6829 12.2683 16.3902C12.2683 14.0976 14.1219 12.2439 16.4146 12.2439C18.7073 12.2439 20.561 14.0976 20.561 16.3902C20.561 18.6829 18.7073 20.5366 16.4146 20.5366ZM17.1463 16L18.6585 16.6829C19.0488 16.878 19.1951 17.2683 19.0488 17.6585C18.9024 17.9512 18.6585 18.0976 18.3658 18.0976C18.2683 18.0976 18.1707 18.0976 18.0732 18.0488L16.1219 17.1707C15.878 17.0244 15.6829 16.7805 15.6829 16.4878V13.9512C15.6829 13.561 16.0244 13.2195 16.4146 13.2195C16.8049 13.2195 17.1463 13.561 17.1463 13.9512V16ZM15.439 6.39024C15.8292 6.39024 16.1707 6.73171 16.1707 7.12195C16.1707 7.5122 15.8292 7.85366 15.439 7.85366H7.14632C6.75608 7.85366 6.41462 7.5122 6.41462 7.12195C6.41462 6.73171 6.75608 6.39024 7.14632 6.39024H15.439ZM6.41462 11.0244C6.41462 10.6341 6.75608 10.2927 7.14632 10.2927H9.58535C9.97559 10.2927 10.3171 10.6341 10.3171 11.0244C10.3171 11.4146 9.97559 11.7561 9.58535 11.7561H7.14632C6.75608 11.7561 6.41462 11.4146 6.41462 11.0244Z" fill="#2E3A59"/>
</svg>
