<svg width="32" height="32" viewBox="0 0 32 32" fill="none" xmlns="http://www.w3.org/2000/svg">
<path d="M16 12.364C18 12.364 19.6363 14.0003 19.6363 16.0003C19.6363 18.0003 18 19.6367 16 19.6367C14 19.6367 12.3636 18.0003 12.3636 16.0003C12.3636 14.0003 14 12.364 16 12.364ZM16 9.93972C12.6545 9.93972 9.93935 12.6549 9.93935 16.0003C9.93935 19.3458 12.6545 22.0609 16 22.0609C19.3454 22.0609 22.0606 19.3458 22.0606 16.0003C22.0606 12.6549 19.3454 9.93972 16 9.93972ZM3.87875 17.2124H6.30299C6.96966 17.2124 7.51511 16.667 7.51511 16.0003C7.51511 15.3337 6.96966 14.7882 6.30299 14.7882H3.87875C3.21208 14.7882 2.66663 15.3337 2.66663 16.0003C2.66663 16.667 3.21208 17.2124 3.87875 17.2124ZM25.6969 17.2124H28.1212C28.7878 17.2124 29.3333 16.667 29.3333 16.0003C29.3333 15.3337 28.7878 14.7882 28.1212 14.7882H25.6969C25.0303 14.7882 24.4848 15.3337 24.4848 16.0003C24.4848 16.667 25.0303 17.2124 25.6969 17.2124ZM14.7878 3.87911V6.30336C14.7878 6.97002 15.3333 7.51548 16 7.51548C16.6666 7.51548 17.2121 6.97002 17.2121 6.30336V3.87911C17.2121 3.21245 16.6666 2.66699 16 2.66699C15.3333 2.66699 14.7878 3.21245 14.7878 3.87911ZM14.7878 25.6973V28.1215C14.7878 28.7882 15.3333 29.3337 16 29.3337C16.6666 29.3337 17.2121 28.7882 17.2121 28.1215V25.6973C17.2121 25.0306 16.6666 24.4852 16 24.4852C15.3333 24.4852 14.7878 25.0306 14.7878 25.6973ZM8.71511 7.00639C8.60297 6.89402 8.46977 6.80487 8.32314 6.74404C8.17651 6.68322 8.01931 6.65191 7.86057 6.65191C7.70182 6.65191 7.54463 6.68322 7.39799 6.74404C7.25136 6.80487 7.11816 6.89402 7.00602 7.00639C6.89365 7.11852 6.8045 7.25172 6.74368 7.39836C6.68285 7.54499 6.65154 7.70218 6.65154 7.86093C6.65154 8.01968 6.68285 8.17687 6.74368 8.32351C6.8045 8.47014 6.89365 8.60334 7.00602 8.71548L8.29087 10.0003C8.7636 10.4731 9.53935 10.4731 9.99996 10.0003C10.4606 9.5276 10.4727 8.75184 9.99996 8.29123L8.71511 7.00639ZM23.7091 22.0003C23.5969 21.888 23.4637 21.7988 23.3171 21.738C23.1704 21.6772 23.0133 21.6458 22.8545 21.6458C22.6958 21.6458 22.5386 21.6772 22.3919 21.738C22.2453 21.7988 22.1121 21.888 22 22.0003C21.8876 22.1125 21.7984 22.2457 21.7376 22.3923C21.6768 22.5389 21.6455 22.6961 21.6455 22.8549C21.6455 23.0136 21.6768 23.1708 21.7376 23.3174C21.7984 23.4641 21.8876 23.5973 22 23.7094L23.2848 24.9943C23.7575 25.467 24.5333 25.467 24.9939 24.9943C25.1063 24.8821 25.1954 24.7489 25.2562 24.6023C25.3171 24.4557 25.3484 24.2985 25.3484 24.1397C25.3484 23.981 25.3171 23.8238 25.2562 23.6771C25.1954 23.5305 25.1063 23.3973 24.9939 23.2852L23.7091 22.0003ZM24.9939 8.71548C25.1063 8.60334 25.1954 8.47014 25.2562 8.32351C25.3171 8.17687 25.3484 8.01968 25.3484 7.86093C25.3484 7.70218 25.3171 7.54499 25.2562 7.39836C25.1954 7.25172 25.1063 7.11852 24.9939 7.00639C24.8818 6.89402 24.7486 6.80487 24.6019 6.74404C24.4553 6.68322 24.2981 6.65191 24.1394 6.65191C23.9806 6.65191 23.8234 6.68322 23.6768 6.74404C23.5301 6.80487 23.3969 6.89402 23.2848 7.00639L22 8.29123C21.5272 8.76396 21.5272 9.53972 22 10.0003C22.4727 10.4609 23.2484 10.4731 23.7091 10.0003L24.9939 8.71548ZM9.99996 23.7094C10.1123 23.5973 10.2015 23.4641 10.2623 23.3174C10.3231 23.1708 10.3544 23.0136 10.3544 22.8549C10.3544 22.6961 10.3231 22.5389 10.2623 22.3923C10.2015 22.2457 10.1123 22.1125 9.99996 22.0003C9.88782 21.888 9.75462 21.7988 9.60799 21.738C9.46135 21.6772 9.30416 21.6458 9.14541 21.6458C8.98666 21.6458 8.82947 21.6772 8.68284 21.738C8.5362 21.7988 8.40301 21.888 8.29087 22.0003L7.00602 23.2852C6.53329 23.7579 6.53329 24.5337 7.00602 24.9943C7.47875 25.4549 8.2545 25.467 8.71511 24.9943L9.99996 23.7094V23.7094Z" fill="#8F9BB3"/>
</svg>
