<svg width="17" height="19" viewBox="0 0 17 19" fill="none" xmlns="http://www.w3.org/2000/svg">
<path d="M7.42476 10.3041V18.4038H3.82488C3.04914 18.4038 2.30518 18.0956 1.75666 17.5471C1.20813 16.9986 0.899971 16.2546 0.899971 15.4789V10.3041H7.42476ZM15.2995 10.3041V15.4789C15.2995 16.2546 14.9913 16.9986 14.4428 17.5471C13.8943 18.0956 13.1503 18.4038 12.3746 18.4038H8.77471V10.3041H15.2995ZM10.3497 0.404394C10.8745 0.404286 11.3897 0.545393 11.8412 0.812916C12.2927 1.08044 12.6639 1.46452 12.9159 1.92489C13.1679 2.38526 13.2914 2.90495 13.2735 3.42947C13.2555 3.95399 13.0967 4.46401 12.8138 4.90605L15.0745 4.90425C15.6955 4.90425 16.1995 5.32363 16.1995 5.84202V8.46633C16.1995 8.98471 15.6955 9.4041 15.0745 9.4041L8.77471 9.4032V4.90425H7.42476V9.4032L1.12496 9.4041C0.503983 9.4041 0 8.98471 0 8.46633V5.84202C0 5.32363 0.503983 4.90425 1.12496 4.90425L3.38569 4.90605C2.98415 4.279 2.83687 3.52242 2.97388 2.79053C3.11088 2.05865 3.52186 1.40657 4.12303 0.96723C4.7242 0.527888 5.47029 0.334362 6.20922 0.426103C6.94814 0.517845 7.62426 0.887946 8.09974 1.46096C8.37374 1.12994 8.71752 0.863581 9.10648 0.680927C9.49543 0.498273 9.91995 0.403843 10.3497 0.404394ZM5.84981 1.75435C5.44346 1.75453 5.0529 1.91177 4.75978 2.19319C4.46665 2.47461 4.29364 2.85844 4.27691 3.26444C4.26017 3.67045 4.40101 4.06721 4.66999 4.3718C4.93896 4.67639 5.31526 4.86523 5.72021 4.89885L5.84981 4.90425H7.42476V3.3293L7.41936 3.1997C7.38683 2.80579 7.20738 2.4385 6.91663 2.17075C6.62587 1.903 6.24507 1.75436 5.84981 1.75435ZM10.3497 1.75435C9.93196 1.75435 9.53137 1.92028 9.23601 2.21564C8.94065 2.511 8.77471 2.9116 8.77471 3.3293V4.90425H10.3497C10.7674 4.90425 11.168 4.73832 11.4633 4.44296C11.7587 4.1476 11.9246 3.747 11.9246 3.3293C11.9246 2.9116 11.7587 2.511 11.4633 2.21564C11.168 1.92028 10.7674 1.75435 10.3497 1.75435Z" fill="#FF3D71"/>
</svg>
