<svg width="16" height="16" viewBox="0 0 16 16" fill="none" xmlns="http://www.w3.org/2000/svg">
<path fill-rule="evenodd" clip-rule="evenodd" d="M4.93848 13.5886L6.89459 14.1076V13.429L7.05427 13.2693H8.17204V14.0677V14.6266H6.97443L5.49736 13.9878L4.93848 13.5886Z" fill="#CDBDB2"/>
<path fill-rule="evenodd" clip-rule="evenodd" d="M11.3252 13.5886L9.40903 14.1076V13.429L9.24935 13.2693H8.13159V14.0677V14.6266H9.32919L10.8062 13.9878L11.3252 13.5886Z" fill="#CDBDB2"/>
<path fill-rule="evenodd" clip-rule="evenodd" d="M7.05421 12.1117L6.89453 13.4291L7.0941 13.2694H9.16994L9.40946 13.4291L9.24978 12.1117L8.93042 11.9121L7.33362 11.9521L7.05421 12.1117Z" fill="#393939"/>
<path fill-rule="evenodd" clip-rule="evenodd" d="M5.97656 3.20947L6.93464 5.445L7.3738 11.952H8.93065L9.40969 5.445L10.2879 3.20947H5.97656Z" fill="#F89C35"/>
<path fill-rule="evenodd" clip-rule="evenodd" d="M1.78475 8.11972L0.666992 11.3532L3.4614 11.1935H5.25776V9.79636L5.17792 6.92212L4.77872 7.24148L1.78475 8.11972Z" fill="#F89D35"/>
<path fill-rule="evenodd" clip-rule="evenodd" d="M3.90039 8.479L7.17383 8.55884L6.81459 10.2355L5.25767 9.83629L3.90039 8.479Z" fill="#D87C30"/>
<path fill-rule="evenodd" clip-rule="evenodd" d="M3.90039 8.5188L5.25767 9.79624V11.0737L3.90039 8.5188Z" fill="#EA8D3A"/>
<path fill-rule="evenodd" clip-rule="evenodd" d="M5.25781 9.83618L6.85461 10.2354L7.37361 11.952L7.01429 12.1515L5.25781 11.1136V9.83618Z" fill="#F89D35"/>
<path fill-rule="evenodd" clip-rule="evenodd" d="M5.25784 11.1138L4.93848 13.5888L7.05428 12.1118L5.25784 11.1138Z" fill="#EB8F35"/>
<path fill-rule="evenodd" clip-rule="evenodd" d="M7.17361 8.55884L7.37325 11.9521L6.77441 10.2155L7.17361 8.55884Z" fill="#EA8E3A"/>
<path fill-rule="evenodd" clip-rule="evenodd" d="M3.42188 11.1537L5.2582 11.1138L4.93884 13.5888L3.42188 11.1537Z" fill="#D87C30"/>
<path fill-rule="evenodd" clip-rule="evenodd" d="M1.54523 14.6665L4.9384 13.5887L3.42144 11.1536L0.666992 11.3531L1.54523 14.6665Z" fill="#EB8F35"/>
<path fill-rule="evenodd" clip-rule="evenodd" d="M6.93431 5.44507L5.21779 6.88219L3.90039 8.47899L7.17383 8.59879L6.93431 5.44507Z" fill="#E8821E"/>
<path fill-rule="evenodd" clip-rule="evenodd" d="M4.93848 13.5886L7.05428 12.1116L6.8946 13.389V14.1076L5.45747 13.8281L4.93848 13.5886Z" fill="#DFCEC3"/>
<path fill-rule="evenodd" clip-rule="evenodd" d="M11.3252 13.5886L9.24935 12.1116L9.40903 13.389V14.1076L10.8462 13.8281L11.3252 13.5886Z" fill="#DFCEC3"/>
<path fill-rule="evenodd" clip-rule="evenodd" d="M6.29522 9.27734L6.73438 10.1955L5.17746 9.79634L6.29522 9.27734Z" fill="#393939"/>
<path fill-rule="evenodd" clip-rule="evenodd" d="M1.50488 1.33325L6.93401 5.44498L6.01588 3.20946L1.50488 1.33325Z" fill="#E88F35"/>
<path fill-rule="evenodd" clip-rule="evenodd" d="M1.50567 1.33325L0.787109 3.52885L1.18631 5.92406L0.90687 6.08374L1.30607 6.44302L0.98671 6.72246L1.42583 7.12166L1.14639 7.36118L1.78511 8.15958L4.77911 7.24142C6.24285 6.07043 6.96141 5.47163 6.9348 5.44502C6.90818 5.4184 5.09848 4.04782 1.50567 1.33325Z" fill="#8E5A30"/>
<path fill-rule="evenodd" clip-rule="evenodd" d="M14.4789 8.11972L15.5967 11.3532L12.8023 11.1935H11.0059V9.79636L11.0858 6.92212L11.485 7.24148L14.4789 8.11972Z" fill="#F89D35"/>
<path fill-rule="evenodd" clip-rule="evenodd" d="M12.3633 8.479L9.08984 8.55884L9.44908 10.2355L11.006 9.83629L12.3633 8.479Z" fill="#D87C30"/>
<path fill-rule="evenodd" clip-rule="evenodd" d="M12.3633 8.5188L11.006 9.79624V11.0737L12.3633 8.5188Z" fill="#EA8D3A"/>
<path fill-rule="evenodd" clip-rule="evenodd" d="M11.0059 9.83618L9.40906 10.2354L8.89006 11.952L9.24938 12.1515L11.0059 11.1136V9.83618Z" fill="#F89D35"/>
<path fill-rule="evenodd" clip-rule="evenodd" d="M11.0058 11.1138L11.3252 13.5888L9.24935 12.1517L11.0058 11.1138Z" fill="#EB8F35"/>
<path fill-rule="evenodd" clip-rule="evenodd" d="M9.09006 8.55884L8.89042 11.9521L9.48926 10.2155L9.09006 8.55884Z" fill="#EA8E3A"/>
<path fill-rule="evenodd" clip-rule="evenodd" d="M12.8418 11.1537L11.0055 11.1138L11.3248 13.5888L12.8418 11.1537Z" fill="#D87C30"/>
<path fill-rule="evenodd" clip-rule="evenodd" d="M14.7184 14.6665L11.3253 13.5887L12.8422 11.1536L15.5967 11.3531L14.7184 14.6665Z" fill="#EB8F35"/>
<path fill-rule="evenodd" clip-rule="evenodd" d="M9.32936 5.44507L11.0459 6.88219L12.3633 8.47899L9.08984 8.59879L9.32936 5.44507Z" fill="#E8821E"/>
<path fill-rule="evenodd" clip-rule="evenodd" d="M9.96845 9.27734L9.5293 10.1955L11.0862 9.79634L9.96845 9.27734Z" fill="#393939"/>
<path fill-rule="evenodd" clip-rule="evenodd" d="M14.7588 1.33325L9.32966 5.44498L10.2478 3.20946L14.7588 1.33325Z" fill="#E88F35"/>
<path fill-rule="evenodd" clip-rule="evenodd" d="M14.758 1.33325L15.4766 3.52885L15.0774 5.92406L15.3568 6.08374L14.9576 6.44302L15.277 6.72246L14.8378 7.12166L15.1173 7.36118L14.4786 8.15958L11.4846 7.24142C10.0208 6.07043 9.30226 5.47163 9.32887 5.44502C9.35549 5.4184 11.1652 4.04782 14.758 1.33325Z" fill="#8E5A30"/>
</svg>
