<svg width="16" height="17" viewBox="0 0 16 17" fill="none" xmlns="http://www.w3.org/2000/svg">
<path d="M0 8.40381C0 3.98553 3.58172 0.403809 8 0.403809C12.4183 0.403809 16 3.98553 16 8.40381C16 12.8221 12.4183 16.4038 8 16.4038C3.58172 16.4038 0 12.8221 0 8.40381Z" fill="#8F9BB3" fill-opacity="0.24"/>
<path fill-rule="evenodd" clip-rule="evenodd" d="M2 8.64619C2 9.06411 2.16602 9.46491 2.46153 9.76042C2.75704 10.0559 3.15784 10.222 3.57576 10.222C3.99367 10.222 4.39447 10.0559 4.68999 9.76042C4.9855 9.46491 5.15151 9.06411 5.15151 8.64619C5.15151 8.22828 4.9855 7.82748 4.68999 7.53196C4.39447 7.23645 3.99367 7.07043 3.57576 7.07043C3.15784 7.07043 2.75704 7.23645 2.46153 7.53196C2.16602 7.82748 2 8.22828 2 8.64619ZM6.48486 8.64619C6.48486 9.06411 6.65088 9.46491 6.94639 9.76042C7.2419 10.0559 7.6427 10.222 8.06062 10.222C8.47854 10.222 8.87934 10.0559 9.17485 9.76042C9.47036 9.46491 9.63638 9.06411 9.63638 8.64619C9.63638 8.22828 9.47036 7.82748 9.17485 7.53196C8.87934 7.23645 8.47854 7.07043 8.06062 7.07043C7.6427 7.07043 7.2419 7.23645 6.94639 7.53196C6.65088 7.82748 6.48486 8.22828 6.48486 8.64619ZM11.4313 9.76042C11.1357 9.46491 10.9697 9.06411 10.9697 8.64619C10.9697 8.22828 11.1357 7.82748 11.4313 7.53196C11.7268 7.23645 12.1276 7.07043 12.5455 7.07043C12.9634 7.07043 13.3642 7.23645 13.6597 7.53196C13.9552 7.82748 14.1212 8.22828 14.1212 8.64619C14.1212 9.06411 13.9552 9.46491 13.6597 9.76042C13.3642 10.0559 12.9634 10.222 12.5455 10.222C12.1276 10.222 11.7268 10.0559 11.4313 9.76042Z" fill="#8F9BB3"/>
</svg>
