<svg width="42" height="42" viewBox="0 0 42 42" fill="none" xmlns="http://www.w3.org/2000/svg">
<path d="M10.6593 33.248C9.35306 33.248 8.29089 32.1691 8.29089 30.8311V10.7078C8.29089 9.37116 9.35383 8.29089 10.6577 8.29089H23.9965C25.3012 8.29089 26.3633 9.37095 26.3633 10.7088V16.9842C26.3633 17.3406 26.6523 17.6296 27.0087 17.6296C27.3652 17.6296 27.6542 17.3406 27.6542 16.9842V10.7088C27.6542 8.66282 26.0191 7 23.9965 7H10.6577C8.63618 7 7 8.66286 7 10.7078V30.8311C7 32.8776 8.63556 34.5389 10.6593 34.5389H19.038C19.3945 34.5389 19.6835 34.2499 19.6835 33.8935C19.6835 33.537 19.3945 33.248 19.038 33.248H10.6593Z" fill="white"/>
<path d="M23.3509 13.4544C23.7074 13.4544 23.9964 13.1654 23.9964 12.8089C23.9964 12.4525 23.7074 12.1635 23.3509 12.1635H11.3027C10.9462 12.1635 10.6572 12.4525 10.6572 12.8089C10.6572 13.1654 10.9462 13.4544 11.3027 13.4544H23.3509Z" fill="white"/>
<path d="M23.3509 18.1876C23.7074 18.1876 23.9964 17.8986 23.9964 17.5422C23.9964 17.1857 23.7074 16.8967 23.3509 16.8967H11.3027C10.9462 16.8967 10.6572 17.1857 10.6572 17.5422C10.6572 17.8986 10.9462 18.1876 11.3027 18.1876H23.3509Z" fill="white"/>
<path d="M18.1874 22.9211C18.5439 22.9211 18.8328 22.6321 18.8328 22.2756C18.8328 21.9192 18.5439 21.6302 18.1874 21.6302H11.3027C10.9462 21.6302 10.6572 21.9192 10.6572 22.2756C10.6572 22.6321 10.9462 22.9211 11.3027 22.9211H18.1874Z" fill="white"/>
<path d="M25.9747 32.4645C22.4008 32.4645 19.4932 29.5536 19.4932 25.9757C19.4932 22.3978 22.4008 19.4869 25.9747 19.4869C29.5486 19.4869 32.4564 22.3978 32.4564 25.9757C32.4564 29.5536 29.5486 32.4645 25.9747 32.4645ZM25.9747 21.0841C23.2804 21.0841 21.0886 23.2785 21.0886 25.9757C21.0886 28.673 23.2804 30.8674 25.9747 30.8674C28.669 30.8674 30.861 28.673 30.861 25.9757C30.861 23.2785 28.669 21.0841 25.9747 21.0841Z" fill="white"/>
<path d="M33.5448 34.5369C33.2935 34.5369 33.0423 34.4409 32.8506 34.2491L29.4643 30.8592C29.0809 30.4754 29.0809 29.853 29.4643 29.4691C29.8478 29.0854 30.4694 29.0854 30.8529 29.4691L34.2391 32.859C34.6225 33.2428 34.6225 33.8652 34.2391 34.249C34.0473 34.4409 33.7962 34.5369 33.5448 34.5369Z" fill="white"/>
</svg>
