<svg width="14" height="16" viewBox="0 0 14 16" fill="none" xmlns="http://www.w3.org/2000/svg">
<path d="M4.825 14.375C5.2375 15.1625 6.0625 15.6875 7 15.6875C7.9375 15.6875 8.7625 15.1625 9.175 14.375H4.825ZM13.5625 12.725C13.525 11.4875 13.0375 10.475 12.1375 9.6875L12.0625 9.6125V6.875C12.0625 4.8125 10.825 3.05 9.0625 2.2625C8.9875 1.175 8.0875 0.3125 7 0.3125C5.9125 0.3125 5.0125 1.175 4.9375 2.2625C3.175 3.05 1.9375 4.8125 1.9375 6.875V9.6125L1.8625 9.6875C0.925 10.5125 0.4375 11.6 0.4375 12.875C0.4375 13.175 0.7 13.4375 1 13.4375H13C13.3 13.4375 13.5625 13.175 13.5625 12.875V12.725Z" fill="#8F9BB3"/>
</svg>
