<svg width="20" height="17" viewBox="0 0 20 17" fill="none" xmlns="http://www.w3.org/2000/svg">
<path fill-rule="evenodd" clip-rule="evenodd" d="M11.2403 16.5223C11.0371 16.6207 10.818 16.6699 10.583 16.6699C10.2528 16.6699 9.97973 16.562 9.76381 16.346C9.5479 16.1301 9.43994 15.8571 9.43994 15.5268V12.1929H9.2018C8.07777 12.1929 7.08551 12.3088 6.22503 12.5405C5.36454 12.7723 4.60725 13.1597 3.95315 13.7027C3.29906 14.2456 2.72434 14.9807 2.22901 15.9079C2.0639 16.2127 1.87814 16.4127 1.67176 16.508C1.46537 16.6032 1.25104 16.6509 1.02877 16.6509C0.755703 16.6509 0.515974 16.5223 0.309584 16.2651C0.103195 16.0079 0 15.638 0 15.1553C0 13.5106 0.184163 12.0293 0.552489 10.7116C0.920815 9.3939 1.47965 8.27304 2.22901 7.34905C2.97836 6.42506 3.93251 5.71858 5.09147 5.22959C6.25043 4.74061 7.62054 4.49612 9.2018 4.49612H9.43994V1.19071C9.43994 0.866836 9.5479 0.587416 9.76381 0.35245C9.97973 0.117483 10.2591 0 10.6021 0C10.837 0 11.0466 0.0523912 11.2308 0.157174C11.4149 0.261956 11.634 0.43183 11.888 0.666797L19.0132 7.31571C19.191 7.48718 19.3149 7.65864 19.3847 7.8301C19.4546 8.00156 19.4895 8.16985 19.4895 8.33496C19.4895 8.49372 19.4546 8.66201 19.3847 8.83982C19.3149 9.01763 19.191 9.18592 19.0132 9.34468L11.888 16.0508C11.6594 16.2667 11.4435 16.4238 11.2403 16.5223ZM11.0021 14.3838C11.0021 14.479 11.0466 14.5266 11.1355 14.5266C11.1863 14.5266 11.2371 14.5012 11.2879 14.4504L17.5653 8.50642C17.5971 8.47467 17.6209 8.4445 17.6368 8.41593C17.6527 8.38735 17.6606 8.36036 17.6606 8.33496C17.6606 8.28416 17.6288 8.227 17.5653 8.1635L11.2879 2.1528C11.2689 2.13375 11.2451 2.11787 11.2165 2.10517C11.1879 2.09247 11.1609 2.08612 11.1355 2.08612C11.0466 2.08612 11.0021 2.13057 11.0021 2.21948V5.70587C11.0021 5.90274 10.9037 6.00117 10.7069 6.00117H9.52567C8.02697 6.00117 6.76958 6.23137 5.75351 6.69178C4.73743 7.15219 3.91823 7.77453 3.29588 8.55881C2.67354 9.34309 2.21631 10.2322 1.92419 11.226C1.63207 12.2198 1.46695 13.2502 1.42885 14.3171C1.42885 14.3869 1.45108 14.4219 1.49553 14.4219C1.51458 14.4219 1.52887 14.4139 1.5384 14.398C1.54792 14.3822 1.55904 14.3584 1.57174 14.3266C1.93371 13.5709 2.47191 12.9216 3.18634 12.3786C3.90076 11.8356 4.78506 11.4165 5.83924 11.1212C6.89341 10.8259 8.12222 10.6783 9.52567 10.6783H10.7069C10.9037 10.6783 11.0021 10.7799 11.0021 10.9831V14.3838Z" fill="white"/>
</svg>
