<svg width="18" height="18" viewBox="0 0 18 18" fill="none" xmlns="http://www.w3.org/2000/svg">
<path d="M9.74522 17.9836C10.0455 17.9836 10.3062 17.8976 10.5273 17.7257C10.7484 17.5537 10.8917 17.3176 10.9572 17.0173L11.3421 15.4122L11.6328 15.2975C11.7284 15.2593 11.8198 15.2211 11.9072 15.1829L13.3157 16.051C13.5669 16.2038 13.833 16.2666 14.1142 16.2393C14.3954 16.212 14.6424 16.0919 14.8553 15.879L15.8954 14.8389C16.1083 14.626 16.2284 14.3749 16.2557 14.0855C16.283 13.7962 16.2147 13.5287 16.051 13.283L15.1911 11.8826C15.2348 11.7953 15.2743 11.7066 15.3098 11.6165C15.3453 11.5264 15.3794 11.4349 15.4122 11.3421L17.0337 10.9572C17.3285 10.8917 17.5632 10.7484 17.7379 10.5273C17.9126 10.3062 18 10.0428 18 9.73703V8.28753C18 7.98726 17.9126 7.72657 17.7379 7.50546C17.5632 7.28435 17.3285 7.14104 17.0337 7.07552L15.4286 6.69063C15.3958 6.5869 15.3603 6.48863 15.3221 6.39581C15.2839 6.303 15.2457 6.21565 15.2075 6.13376L16.0673 4.70883C16.2311 4.45223 16.3007 4.18335 16.2762 3.90218C16.2516 3.62102 16.1274 3.37671 15.9035 3.16924L14.8389 2.11283C14.626 1.92721 14.3899 1.81665 14.1306 1.78116C13.8712 1.74568 13.616 1.79891 13.3649 1.94086L11.9072 2.83349C11.8253 2.78981 11.7366 2.74886 11.641 2.71065C11.5455 2.67243 11.4459 2.63421 11.3421 2.596L10.9572 0.958144C10.8917 0.66879 10.7484 0.436761 10.5273 0.262056C10.3062 0.0873521 10.0455 0 9.74522 0H8.25478C7.94904 0 7.68699 0.0873521 7.46861 0.262056C7.25023 0.436761 7.10828 0.67152 7.04277 0.966333L6.65787 2.57962C6.55414 2.61783 6.45314 2.65742 6.35487 2.69836C6.2566 2.73931 6.16379 2.78162 6.07643 2.8253L4.63512 1.94086C4.37853 1.79891 4.12056 1.74431 3.86124 1.77707C3.60191 1.80983 3.36306 1.92448 3.14468 2.12102L2.09645 3.16924C1.87261 3.37671 1.74841 3.62102 1.72384 3.90218C1.69927 4.18335 1.76888 4.45223 1.93267 4.70883L2.79254 6.13376C2.75432 6.21565 2.71611 6.303 2.67789 6.39581C2.63967 6.48863 2.60419 6.5869 2.57143 6.69063L0.966333 7.07552C0.66606 7.14104 0.429936 7.28435 0.257962 7.50546C0.0859873 7.72657 0 7.98726 0 8.28753V9.73703C0 10.0428 0.0859873 10.3062 0.257962 10.5273C0.429936 10.7484 0.66606 10.8917 0.966333 10.9572L2.58781 11.3421C2.6151 11.4349 2.64786 11.5264 2.68608 11.6165C2.72429 11.7066 2.76251 11.7953 2.80073 11.8826L1.94904 13.283C1.78526 13.5287 1.71702 13.7962 1.74431 14.0855C1.77161 14.3749 1.89172 14.626 2.10464 14.8389L3.14468 15.879C3.35214 16.0919 3.59645 16.212 3.87762 16.2393C4.15878 16.2666 4.42766 16.2038 4.68426 16.051L6.08462 15.1829C6.17197 15.2211 6.26342 15.2593 6.35896 15.2975C6.4545 15.3358 6.55414 15.374 6.65787 15.4122L7.04277 17.0173C7.10828 17.3176 7.25023 17.5537 7.46861 17.7257C7.68699 17.8976 7.94904 17.9836 8.25478 17.9836H9.74522ZM9 11.8089C8.48681 11.8089 8.01592 11.682 7.58735 11.4281C7.15878 11.1742 6.81756 10.833 6.56369 10.4045C6.30983 9.97589 6.18289 9.50228 6.18289 8.98362C6.18289 8.47043 6.31119 8.00227 6.56779 7.57916C6.82439 7.15605 7.16561 6.81756 7.59145 6.56369C8.01729 6.30983 8.48681 6.18289 9 6.18289C9.51319 6.18289 9.98408 6.30983 10.4126 6.56369C10.8412 6.81756 11.1811 7.15605 11.4322 7.57916C11.6833 8.00227 11.8089 8.47043 11.8089 8.98362C11.8089 9.50228 11.6833 9.97589 11.4322 10.4045C11.1811 10.833 10.8412 11.1742 10.4126 11.4281C9.98408 11.682 9.51319 11.8089 9 11.8089Z" fill="#8F9BB3"/>
</svg>
