<svg width="32" height="32" viewBox="0 0 32 32" fill="none" xmlns="http://www.w3.org/2000/svg">
<path fill-rule="evenodd" clip-rule="evenodd" d="M24.8378 8.38026C25.9665 9.00482 26.6666 10.1898 26.6666 11.4758V19.1124C26.6666 20.3985 25.9665 21.5834 24.8378 22.208L17.7266 26.1426C16.6528 26.7368 15.347 26.7368 14.2732 26.1426L7.16208 22.208C6.03331 21.5834 5.33325 20.3985 5.33325 19.1124V11.4758C5.33325 10.1898 6.03331 9.00482 7.16208 8.38026L14.2732 4.44563C15.347 3.85146 16.6528 3.85146 17.7266 4.44563L24.8378 8.38026ZM13.6295 15.2938C13.6295 13.99 14.6908 12.933 15.9999 12.933C17.309 12.933 18.3703 13.99 18.3703 15.2938C18.3703 16.5976 17.309 17.6546 15.9999 17.6546C14.6908 17.6546 13.6295 16.5976 13.6295 15.2938ZM15.9999 10.5723C13.3817 10.5723 11.2592 12.6862 11.2592 15.2938C11.2592 17.9015 13.3817 20.0154 15.9999 20.0154C18.6182 20.0154 20.7407 17.9015 20.7407 15.2938C20.7407 12.6862 18.6182 10.5723 15.9999 10.5723Z" fill="#17171A"/>
</svg>
