<svg width="25" height="24" viewBox="0 0 25 24" fill="none" xmlns="http://www.w3.org/2000/svg">
<circle cx="12.9812" cy="12" r="12" fill="#FFEDED"/>
<path d="M10.0284 4.39863C10.0982 4.27595 10.2285 4.2002 10.3697 4.2002H15.3354C15.4771 4.2002 15.6078 4.27648 15.6774 4.39983L20.7482 13.3783C20.8961 13.6401 20.7069 13.9642 20.4062 13.9642H5.25701C4.95566 13.9642 4.76655 13.6389 4.91566 13.377L10.0284 4.39863Z" fill="#F9B6B0"/>
<circle cx="10.81" cy="9.08242" r="1.62734" fill="white"/>
<circle cx="14.8502" cy="9.08242" r="1.62734" fill="white"/>
<path d="M10.7542 10.7098C11.6839 10.7098 12.4376 9.98117 12.4376 9.08242C12.4376 8.18366 11.6839 7.45508 10.7542 7.45508V10.7098Z" fill="#010101"/>
<path d="M14.7944 10.7098C15.7242 10.7098 16.4779 9.98117 16.4779 9.08242C16.4779 8.18366 15.7242 7.45508 14.7944 7.45508V10.7098Z" fill="#010101"/>
<rect x="10.0806" y="13.9639" width="1.45899" height="4.71367" fill="#010101"/>
<rect x="13.5598" y="13.9639" width="1.45899" height="4.71367" fill="#010101"/>
<path d="M10.0806 18.6777H11.3151C11.9349 18.6777 12.4374 19.1802 12.4374 19.8H10.0806V18.6777Z" fill="#010101"/>
<path d="M13.5598 18.6777H14.7943C15.4142 18.6777 15.9166 19.1802 15.9166 19.8H13.5598V18.6777Z" fill="#010101"/>
</svg>
