<svg width="37" height="36" viewBox="0 0 37 36" fill="none" xmlns="http://www.w3.org/2000/svg">
<path d="M18.4907 0C20.9488 0 23.2648 0.466289 25.4388 1.39887C27.6127 2.33145 29.5273 3.62841 31.1824 5.28976C32.8376 6.95111 34.1377 8.86876 35.0826 11.0427C36.0275 13.2167 36.5 15.5327 36.5 17.9907C36.5 20.4611 36.0306 22.7802 35.0919 24.948C34.1531 27.1158 32.8562 29.0273 31.201 30.6824C29.5458 32.3376 27.6312 33.6377 25.4573 34.5826C23.2833 35.5275 20.9673 36 18.5093 36C16.0389 36 13.7198 35.5275 11.552 34.5826C9.3842 33.6377 7.47272 32.3376 5.81755 30.6824C4.16238 29.0273 2.86233 27.1158 1.9174 24.948C0.972465 22.7802 0.5 20.4611 0.5 17.9907C0.5 15.5327 0.969377 13.2167 1.90813 11.0427C2.84689 8.86876 4.14694 6.95111 5.80829 5.28976C7.46963 3.62841 9.3842 2.33145 11.552 1.39887C13.7198 0.466289 16.0327 0 18.4907 0ZM18.4907 3.29799C16.4527 3.29799 14.5473 3.67473 12.7748 4.4282C11.0023 5.18168 9.44287 6.2316 8.0965 7.57797C6.75013 8.92434 5.70021 10.4869 4.94673 12.2656C4.19326 14.0443 3.81652 15.9527 3.81652 17.9907C3.81652 20.0288 4.19326 21.9372 4.94673 23.7159C5.70021 25.4946 6.75013 27.0571 8.0965 28.4035C9.44287 29.7499 11.0054 30.8029 12.7841 31.5625C14.5628 32.3222 16.4712 32.702 18.5093 32.702C20.5473 32.702 22.4588 32.3222 24.2437 31.5625C26.0286 30.8029 27.5911 29.7499 28.9313 28.4035C30.2715 27.0571 31.3214 25.4946 32.0811 23.7159C32.8407 21.9372 33.2144 20.0288 33.202 17.9907C33.202 15.9527 32.8222 14.0443 32.0625 12.2656C31.3029 10.4869 30.2499 8.92434 28.9035 7.57797C27.5571 6.2316 25.9946 5.18168 24.2159 4.4282C22.4372 3.67473 20.5288 3.29799 18.4907 3.29799ZM10.1162 10.6555C10.5952 10.6555 10.9636 10.8581 11.2215 11.2634L11.8847 12.2996C12.1886 12.7601 12.5939 13.2736 13.1004 13.84C13.607 14.4065 14.1873 14.9545 14.8412 15.4841C15.4952 16.0137 16.1929 16.4489 16.9343 16.7897C17.6758 17.1305 18.4333 17.3009 19.207 17.3009L24.0677 17.2982L24.0702 15.3943C24.0702 14.9061 24.2175 14.5999 24.5123 14.4755C24.807 14.3512 25.1478 14.4318 25.5347 14.7173L29.8175 17.743C30.1307 17.9732 30.285 18.238 30.2805 18.5374C30.2758 18.8367 30.1215 19.0969 29.8175 19.318L25.5208 22.3436C25.1432 22.62 24.807 22.6959 24.5123 22.5716C24.2175 22.4473 24.0702 22.1456 24.0702 21.6667L24.0677 19.7598L19.207 19.7601C18.4333 19.7601 17.6758 19.9305 16.9343 20.2713C16.1929 20.6121 15.4952 21.0473 14.8412 21.5769C14.1873 22.1065 13.607 22.6545 13.1004 23.2209C12.5939 23.7874 12.1886 24.3009 11.8847 24.7614L11.2215 25.7976C10.9636 26.2028 10.5998 26.4055 10.13 26.4055C9.79847 26.4055 9.52215 26.2973 9.3011 26.0808C9.08005 25.8644 8.96952 25.5765 8.96952 25.2173C8.96952 24.8581 9.08005 24.5035 9.3011 24.1535L9.75702 23.4765C10.0518 23.0344 10.4294 22.5532 10.8899 22.0328C11.3504 21.5124 11.8363 21.0104 12.3475 20.5269C12.8587 20.0433 13.3537 19.6242 13.8327 19.2696C14.3116 18.915 14.7215 18.6778 15.0623 18.5581V18.5028C14.7215 18.3831 14.3116 18.1436 13.8327 17.7844C13.3537 17.4252 12.8587 17.0038 12.3475 16.5203C11.8363 16.0367 11.3504 15.5371 10.8899 15.0213C10.4294 14.5055 10.0518 14.0265 9.75702 13.5844L9.3011 12.9075C9.08005 12.5575 8.96952 12.2028 8.96952 11.8436C8.96952 11.4844 9.08465 11.1966 9.31492 10.9801C9.54518 10.7637 9.81229 10.6555 10.1162 10.6555Z" fill="#8F9BB3" fill-opacity="0.24"/>
</svg>
